<?xml version="1.0" encoding="utf-8"?>
<!-- Generator: Adobe Illustrator 28.1.0, SVG Export Plug-In . SVG Version: 6.00 Build 0)  -->
<svg version="1.1" id="Layer_1" xmlns="http://www.w3.org/2000/svg" xmlns:xlink="http://www.w3.org/1999/xlink" x="0px" y="0px"
	 viewBox="0 0 512 512" style="enable-background:new 0 0 512 512;" xml:space="preserve">
<style type="text/css">
	.st0{fill:#58595B;}
	.st1{fill:none;stroke:#F7F8F9;stroke-width:0.25;stroke-miterlimit:10;}
	.st2{fill:#0C9ED9;}
</style>
<g>
	<path class="st0" d="M496.6,393.3l-2.1,4.8c-8.5,19.8-22.3,30.9-40.8,33.2c-8.9,1.1-18,1.3-27,1.3c-2.9,0-5.8,0-8.7,0
		c-4.4,0-8.9-0.1-13.4,0h0c-2.6,0-5.2-2.1-6.3-4.1c-4.8-8.7-11.7-12.6-21.7-12.3c-9.7,0.3-19.5,0.2-29,0l-0.4,0
		c-9-0.1-15.4,3.6-20.1,11.7c-1.1,1.9-3.8,4.6-6.9,4.6h0c-4.1,0-8.1,0-12.2,0c-11.8,0.1-23.9,0.2-35.8-1.2
		c-18.7-2.1-32.7-13.3-41.6-33.3l-2.2-4.8H496.6z M390.3,441.1c-2.3,14.3-13.7,24.4-27.5,24.6h-0.3c-13.5,0-25.1-10.1-27.6-24.1
		c-1-5.6,0.6-9.1,2.2-11.1c1.6-2,4.6-4.4,10.2-4.6c0.2,0,0.3,0,0.5,0h15c1.6,0,3.1,0,4.7,0c3.4,0,6.9,0,10.3,0
		c4.3,0.1,7.8,1.6,10.1,4.4C390.2,433,391,436.8,390.3,441.1 M283.3,498.2h-39.4v-64.2l39.4,10.6V498.2z M234.4,473.6
		c0,5.2,0,10.4,0,15.6v9.2h-47.6v-22.6l3.2-0.2c7.2-0.6,12.6-3.2,16.5-8.2c3.3-4.1,4.8-8.7,4.7-14c-0.2-11.3-7.9-18.8-21.7-21.2
		l-2.8-0.5V254.8l4.4,1.4c15.9,4.9,30.1,12.6,43.5,23.4c12.4,10,22.6,22,30.4,35.5c0.9,1.6,2.2,3.9,2.2,6.4
		c0.1,15.4,0.1,31.1,0.1,46.3v13.9l-5.9,3.1l-1.7-2.6c-0.3-0.4-0.6-0.8-0.8-1.2c-0.8-1-1.6-2.2-2.2-3.7
		c-6.6-16.4-13.2-32.9-19.7-49.3l-7.1-17.8c-0.4-1-0.8-2-1.2-3l-9.1,3.6l28.9,72.7H217c1.5,13.5,5.8,24.6,13.2,33.8
		c3,3.8,4.3,7.6,4.3,12.4C234.3,444.2,234.3,459.1,234.4,473.6 M176.5,498.5H121v-22.9h55.5V498.5z M114.9,465.8
		c-1.8,0-3.7,0-5.5-0.1c-3.5-0.2-7.2-0.3-10.7-0.4c-8.9-0.2-18.2-0.4-27.1-2.6c-32.7-7.8-55.9-36.2-57.8-70.6
		c-3.3-60.8,30.9-113.6,87.1-134.3c1.2-0.4,2.3-0.8,3.6-1.1c0.6-0.2,1.2-0.3,1.8-0.5l4.4-1.4v172l-3.7-0.3c-26.2-2.1-43.9-21-44-47
		c0-7.3,0-14.6,0-21.9l0-6.7h-9.5c0,3.9-0.1,7.9-0.1,11.8c-0.2,8.8-0.4,17.9,0.8,26.6c3.2,24,19.4,40.8,44.5,46.1
		c3,0.6,5.9,1.3,8.9,2c4.4,1,9,2.1,13.5,2.9c1.7,0.3,6.8,1.3,6.5,7.8c-0.1,3.1-0.1,6.3-0.1,9.7c0,1.5,0,3.1,0,4.8v3.4H124
		c-1.6,0-3.1,0-4.6,0C118,465.7,116.5,465.8,114.9,465.8 M110.6,498.3H63.2V473l47.4,3.2V498.3z M95.9,188.5c0-12.7,0-25.5,0-38.3
		l0-20.5H201l0.2,3.2c0,0.5,0.1,1,0.1,1.5c0.1,1.1,0.2,2.2,0.2,3.3l0,6c0,14.8,0,29.6,0,44.4c0,18.5-11.9,30.5-30.2,30.5
		c-7.9,0-15.5,0-22.9,0c-7.6,0-15,0-22.3,0C107.8,218.6,96,206.7,95.9,188.5 M46.8,96.8h203.6v22.7H46.8V96.8z M63.2,149.2v-19.4H86
		v13.1L63.2,149.2z M86.1,193.6l-3.5-0.1c-11-0.3-19.2-8.4-19.5-19c-0.3-10.7,7.8-19.1,19.4-20l3.7-0.3V193.6z M65.4,82.7
		c3.1-27.5,31.8-59.2,57.9-64l4.1-0.7v68.5H64.9L65.4,82.7z M137.3,14.8h22.9v71.8h-22.9V14.8z M170.2,18l4.1,0.8
		c26.5,5,54.6,36.2,57.8,64.1l0.4,3.8h-62.3V18z M211.4,142.9v-13.3H234v19.4L211.4,142.9z M215.2,193.7l-3.9,0.6v-40.1l3.7,0.3
		c11.3,0.9,19.2,8.9,19.4,19.4C234.5,184.2,227,192,215.2,193.7 M123.8,336.8c5.2-6.8,10.5-13.4,16.1-20.4c2-2.5,4-5,6.1-7.6
		l2.7-3.3l2.7,3.3c2,2.5,4,5,6,7.5c4.7,5.9,9.2,11.6,13.9,17c4.1,4.8,5.9,9.8,5.8,16.2c-0.2,14.1-0.2,28.6-0.2,42.5
		c0,5.4,0,10.7,0,16.1v8.2h-3.4c-2.3,0-4.6,0-6.8-0.1c-4.8-0.1-9.4-0.1-14,0.2c-6.5,0.4-11.3,4.4-16.8,10.7
		c-1.1,1.3-3.8,4.3-7.8,4.3c-1.7,0-3.7-0.6-5.9-2l-1.5-1l0-29.2c0-17.5,0-35.6,0.1-53.4C120.7,342.7,121.9,339.2,123.8,336.8
		 M142.6,297.2L121,324.4v-59.5L142.6,297.2z M176.5,264.7v59.7l-21.7-27.1L176.5,264.7z M168.8,258.8c-4.2,5.3-7.9,11.1-11.8,17.2
		c-1.8,2.8-3.6,5.6-5.5,8.4l-2.9,4.3l-2.9-4.3c-1.9-2.9-3.8-5.7-5.7-8.4c-5.9-8.8-11.5-17.2-16.9-25.7c-1.8-2.9-0.6-6.7,0.3-9.5
		c3.6-11.4,5.1-12.5,16.8-12.5h0c2.3,0,4.4,0,6.6,0c5.2,0,10.6,0.1,15.9-0.1c0.1,0,0.3,0,0.4,0c5.4,0,7.2,3.5,8.5,6.1
		C176.2,242.8,175.2,250.6,168.8,258.8 M188.9,442.3c7.3,0.2,12.7,5.3,12.5,11.9c-0.1,6.4-5.5,11.3-12.4,11.4
		c-7,0.1-13.8,0.1-20.8,0.1c-4.5,0-9,0-13.6,0c-4.6,0-9.3,0-14,0h-3.4v-3.4c0-2,0-4.1-0.1-6.1c-0.1-4.8-0.1-9.8,0.2-14.7
		c0.4-5.7,13.7-15.4,18.6-15.6c3.5-0.2,6.4-0.2,9.1,0c6.7,0.4,11.2,4.9,11.7,11.7c0.1,1.6,0.1,3.1,0.1,4.7c0.5,0,1,0,1.6,0
		C182,442.3,185.4,442.3,188.9,442.3 M277.2,261.4h88.5v121.5h-88.5V261.4z M310,162.6h121.4v121.6h-55.7v-32.4H310V162.6z
		 M447.8,383.1h-72v-88.6h72V383.1z M505.6,310.7l-9-3.6c-0.5,1.1-0.9,2.2-1.3,3.3l-6.5,16.4c-6.7,16.8-13.4,33.5-20.2,50.3
		c-0.6,1.4-1.4,2.6-2.1,3.7c-0.3,0.4-0.6,0.8-0.8,1.3l-1.5,2.5l-6.2-2.7v-97.2h-16.6v-132h-32.8v-32.4h-9.7v32.2h-23.4v-48.8h-9.5
		v48.9h-23.2v-32.3h-9.7v32.7h-33v98.9h-32.9v46.9l-7.5-8.3c-0.9-1-1.6-1.8-2.3-2.5c-17.7-20-38.9-33.8-63-41
		c-9.5-2.8-11.4-8.9-12.8-16l-0.6-3l2.9-1c10.6-3.5,18.3-9.8,23.4-19.2c1.3-2.4,4.8-3.9,7.3-4c17.6-0.8,29.4-13.1,29.5-30.8
		c0-9,0-18.1,0-27.1l0-15.2l2.7-0.6c10.5-2.2,13.7-6,13.7-16.6c0-1.4,0-2.7,0-4.1c0-3.2,0-6.5,0-9.7c-0.1-6.4-4.9-11.9-10.9-12.5
		c-5.8-0.5-7-4.1-7.7-7.4c-8.2-40.3-41.9-70.4-83.9-75c-40.5-4.5-80.2,18.7-96.4,56.4c-2.1,4.9-3.7,10.1-5.4,15.5
		c-0.8,2.5-1.5,5-2.4,7.6l-0.7,2L51,86.6c-10.4,1.4-14,5.6-14,16.3v9.8c0,11.4,2.7,14.8,13.9,17.7l2.6,0.7v14.5c0,9,0,18.1,0,27.2
		c0,18.2,11.4,30.1,29.7,31.1c3.2,0.2,6.3,2.7,7.6,4.9c4.9,8.2,11.3,13.7,19.7,17c1,0.4,1.9,0.9,2.7,1.2c0.3,0.1,0.5,0.2,0.7,0.3
		l2,1l0,2.2c-0.2,11.3-7.5,15-14.7,17.2c-19.5,6-37.1,16.4-52.4,31.2C18.2,308.1,3.2,344.9,4.1,388.3c0.6,29.1,12.1,51.9,35.3,69.8
		c1.2,0.9,2.7,1.8,4.3,2.7c3.5,2,7.1,4.1,8.9,7.8c1.9,4,1.5,8.5,1.2,12.9c-0.1,1.7-0.3,3.3-0.3,4.8c0,5.9,0,11.8,0,17.6l0,3.8h240.1
		v-65.3h30.7l0.8,2.3c6.7,19,19,29.8,34.7,30.5c8.8,0.4,16.3-1.5,23-5.8c8.8-5.6,14.4-13.6,17.1-24.6l0.6-2.6h2.7c2.1,0,4.2,0,6.2,0
		c4.5,0,8.7,0.1,13,0c3.2-0.1,6.5-0.1,9.7-0.1c7.9,0,16,0,23.7-1.1c27.5-3.8,50.3-29.3,52.2-57.7h-31.3L505.6,310.7z"/>
	<path class="st1" d="M496.6,393.3l-2.1,4.8c-8.5,19.8-22.3,30.9-40.8,33.2c-8.9,1.1-18,1.3-27,1.3c-2.9,0-5.8,0-8.7,0
		c-4.4,0-8.9-0.1-13.4,0h0c-2.6,0-5.2-2.1-6.3-4.1c-4.8-8.7-11.7-12.6-21.7-12.3c-9.7,0.3-19.5,0.2-29,0l-0.4,0
		c-9-0.1-15.4,3.6-20.1,11.7c-1.1,1.9-3.8,4.6-6.9,4.6h0c-4.1,0-8.1,0-12.2,0c-11.8,0.1-23.9,0.2-35.8-1.2
		c-18.7-2.1-32.7-13.3-41.6-33.3l-2.2-4.8H496.6z M390.3,441.1c-2.3,14.3-13.7,24.4-27.5,24.6h-0.3c-13.5,0-25.1-10.1-27.6-24.1
		c-1-5.6,0.6-9.1,2.2-11.1c1.6-2,4.6-4.4,10.2-4.6c0.2,0,0.3,0,0.5,0h15c1.6,0,3.1,0,4.7,0c3.4,0,6.9,0,10.3,0
		c4.3,0.1,7.8,1.6,10.1,4.4C390.2,433,391,436.8,390.3,441.1 M283.3,498.2h-39.4v-64.2l39.4,10.6V498.2z M234.4,473.6
		c0,5.2,0,10.4,0,15.6v9.2h-47.6v-22.6l3.2-0.2c7.2-0.6,12.6-3.2,16.5-8.2c3.3-4.1,4.8-8.7,4.7-14c-0.2-11.3-7.9-18.8-21.7-21.2
		l-2.8-0.5V254.8l4.4,1.4c15.9,4.9,30.1,12.6,43.5,23.4c12.4,10,22.6,22,30.4,35.5c0.9,1.6,2.2,3.9,2.2,6.4
		c0.1,15.4,0.1,31.1,0.1,46.3v13.9l-5.9,3.1l-1.7-2.6c-0.3-0.4-0.6-0.8-0.8-1.2c-0.8-1-1.6-2.2-2.2-3.7
		c-6.6-16.4-13.2-32.9-19.7-49.3l-7.1-17.8c-0.4-1-0.8-2-1.2-3l-9.1,3.6l28.9,72.7H217c1.5,13.5,5.8,24.6,13.2,33.8
		c3,3.8,4.3,7.6,4.3,12.4C234.3,444.2,234.3,459.1,234.4,473.6 M176.5,498.5H121v-22.9h55.5V498.5z M114.9,465.8
		c-1.8,0-3.7,0-5.5-0.1c-3.5-0.2-7.2-0.3-10.7-0.4c-8.9-0.2-18.2-0.4-27.1-2.6c-32.7-7.8-55.9-36.2-57.8-70.6
		c-3.3-60.8,30.9-113.6,87.1-134.3c1.2-0.4,2.3-0.8,3.6-1.1c0.6-0.2,1.2-0.3,1.8-0.5l4.4-1.4v172l-3.7-0.3c-26.2-2.1-43.9-21-44-47
		c0-7.3,0-14.6,0-21.9l0-6.7h-9.5c0,3.9-0.1,7.9-0.1,11.8c-0.2,8.8-0.4,17.9,0.8,26.6c3.2,24,19.4,40.8,44.5,46.1
		c3,0.6,5.9,1.3,8.9,2c4.4,1,9,2.1,13.5,2.9c1.7,0.3,6.8,1.3,6.5,7.8c-0.1,3.1-0.1,6.3-0.1,9.7c0,1.5,0,3.1,0,4.8v3.4H124
		c-1.6,0-3.1,0-4.6,0C118,465.7,116.5,465.8,114.9,465.8 M110.6,498.3H63.2V473l47.4,3.2V498.3z M95.9,188.5c0-12.7,0-25.5,0-38.3
		l0-20.5H201l0.2,3.2c0,0.5,0.1,1,0.1,1.5c0.1,1.1,0.2,2.2,0.2,3.3l0,6c0,14.8,0,29.6,0,44.4c0,18.5-11.9,30.5-30.2,30.5
		c-7.9,0-15.5,0-22.9,0c-7.6,0-15,0-22.3,0C107.8,218.6,96,206.7,95.9,188.5 M46.8,96.8h203.6v22.7H46.8V96.8z M63.2,149.2v-19.4H86
		v13.1L63.2,149.2z M86.1,193.6l-3.5-0.1c-11-0.3-19.2-8.4-19.5-19c-0.3-10.7,7.8-19.1,19.4-20l3.7-0.3V193.6z M65.4,82.7
		c3.1-27.5,31.8-59.2,57.9-64l4.1-0.7v68.5H64.9L65.4,82.7z M137.3,14.8h22.9v71.8h-22.9V14.8z M170.2,18l4.1,0.8
		c26.5,5,54.6,36.2,57.8,64.1l0.4,3.8h-62.3V18z M211.4,142.9v-13.3H234v19.4L211.4,142.9z M215.2,193.7l-3.9,0.6v-40.1l3.7,0.3
		c11.3,0.9,19.2,8.9,19.4,19.4C234.5,184.2,227,192,215.2,193.7 M123.8,336.8c5.2-6.8,10.5-13.4,16.1-20.4c2-2.5,4-5,6.1-7.6
		l2.7-3.3l2.7,3.3c2,2.5,4,5,6,7.5c4.7,5.9,9.2,11.6,13.9,17c4.1,4.8,5.9,9.8,5.8,16.2c-0.2,14.1-0.2,28.6-0.2,42.5
		c0,5.4,0,10.7,0,16.1v8.2h-3.4c-2.3,0-4.6,0-6.8-0.1c-4.8-0.1-9.4-0.1-14,0.2c-6.5,0.4-11.3,4.4-16.8,10.7
		c-1.1,1.3-3.8,4.3-7.8,4.3c-1.7,0-3.7-0.6-5.9-2l-1.5-1l0-29.2c0-17.5,0-35.6,0.1-53.4C120.7,342.7,121.9,339.2,123.8,336.8
		 M142.6,297.2L121,324.4v-59.5L142.6,297.2z M176.5,264.7v59.7l-21.7-27.1L176.5,264.7z M168.8,258.8c-4.2,5.3-7.9,11.1-11.8,17.2
		c-1.8,2.8-3.6,5.6-5.5,8.4l-2.9,4.3l-2.9-4.3c-1.9-2.9-3.8-5.7-5.7-8.4c-5.9-8.8-11.5-17.2-16.9-25.7c-1.8-2.9-0.6-6.7,0.3-9.5
		c3.6-11.4,5.1-12.5,16.8-12.5h0c2.3,0,4.4,0,6.6,0c5.2,0,10.6,0.1,15.9-0.1c0.1,0,0.3,0,0.4,0c5.4,0,7.2,3.5,8.5,6.1
		C176.2,242.8,175.2,250.6,168.8,258.8 M188.9,442.3c7.3,0.2,12.7,5.3,12.5,11.9c-0.1,6.4-5.5,11.3-12.4,11.4
		c-7,0.1-13.8,0.1-20.8,0.1c-4.5,0-9,0-13.6,0c-4.6,0-9.3,0-14,0h-3.4v-3.4c0-2,0-4.1-0.1-6.1c-0.1-4.8-0.1-9.8,0.2-14.7
		c0.4-5.7,13.7-15.4,18.6-15.6c3.5-0.2,6.4-0.2,9.1,0c6.7,0.4,11.2,4.9,11.7,11.7c0.1,1.6,0.1,3.1,0.1,4.7c0.5,0,1,0,1.6,0
		C182,442.3,185.4,442.3,188.9,442.3 M277.2,261.4h88.5v121.5h-88.5V261.4z M310,162.6h121.4v121.6h-55.7v-32.4H310V162.6z
		 M447.8,383.1h-72v-88.6h72V383.1z M505.6,310.7l-9-3.6c-0.5,1.1-0.9,2.2-1.3,3.3l-6.5,16.4c-6.7,16.8-13.4,33.5-20.2,50.3
		c-0.6,1.4-1.4,2.6-2.1,3.7c-0.3,0.4-0.6,0.8-0.8,1.3l-1.5,2.5l-6.2-2.7v-97.2h-16.6v-132h-32.8v-32.4h-9.7v32.2h-23.4v-48.8h-9.5
		v48.9h-23.2v-32.3h-9.7v32.7h-33v98.9h-32.9v46.9l-7.5-8.3c-0.9-1-1.6-1.8-2.3-2.5c-17.7-20-38.9-33.8-63-41
		c-9.5-2.8-11.4-8.9-12.8-16l-0.6-3l2.9-1c10.6-3.5,18.3-9.8,23.4-19.2c1.3-2.4,4.8-3.9,7.3-4c17.6-0.8,29.4-13.1,29.5-30.8
		c0-9,0-18.1,0-27.1l0-15.2l2.7-0.6c10.5-2.2,13.7-6,13.7-16.6c0-1.4,0-2.7,0-4.1c0-3.2,0-6.5,0-9.7c-0.1-6.4-4.9-11.9-10.9-12.5
		c-5.8-0.5-7-4.1-7.7-7.4c-8.2-40.3-41.9-70.4-83.9-75c-40.5-4.5-80.2,18.7-96.4,56.4c-2.1,4.9-3.7,10.1-5.4,15.5
		c-0.8,2.5-1.5,5-2.4,7.6l-0.7,2L51,86.6c-10.4,1.4-14,5.6-14,16.3v9.8c0,11.4,2.7,14.8,13.9,17.7l2.6,0.7v14.5c0,9,0,18.1,0,27.2
		c0,18.2,11.4,30.1,29.7,31.1c3.2,0.2,6.3,2.7,7.6,4.9c4.9,8.2,11.3,13.7,19.7,17c1,0.4,1.9,0.9,2.7,1.2c0.3,0.1,0.5,0.2,0.7,0.3
		l2,1l0,2.2c-0.2,11.3-7.5,15-14.7,17.2c-19.5,6-37.1,16.4-52.4,31.2C18.2,308.1,3.2,344.9,4.1,388.3c0.6,29.1,12.1,51.9,35.3,69.8
		c1.2,0.9,2.7,1.8,4.3,2.7c3.5,2,7.1,4.1,8.9,7.8c1.9,4,1.5,8.5,1.2,12.9c-0.1,1.7-0.3,3.3-0.3,4.8c0,5.9,0,11.8,0,17.6l0,3.8h240.1
		v-65.3h30.7l0.8,2.3c6.7,19,19,29.8,34.7,30.5c8.8,0.4,16.3-1.5,23-5.8c8.8-5.6,14.4-13.6,17.1-24.6l0.6-2.6h2.7c2.1,0,4.2,0,6.2,0
		c4.5,0,8.7,0.1,13,0c3.2-0.1,6.5-0.1,9.7-0.1c7.9,0,16,0,23.7-1.1c27.5-3.8,50.3-29.3,52.2-57.7h-31.3L505.6,310.7z"/>
	<rect x="398.9" y="219.1" class="st2" width="9.1" height="8.9"/>
	<rect x="398.9" y="219.1" class="st1" width="9.1" height="8.9"/>
	<rect x="366.1" y="219.1" class="st2" width="9.1" height="8.9"/>
	<rect x="366.1" y="219.1" class="st1" width="9.1" height="8.9"/>
	<rect x="333.3" y="218.9" class="st2" width="9" height="9.1"/>
	<rect x="333.3" y="218.9" class="st1" width="9" height="9.1"/>
	<rect x="399.2" y="186" class="st2" width="9" height="8.9"/>
	<rect x="399.2" y="186" class="st1" width="9" height="8.9"/>
	<rect x="366.3" y="186.1" class="st2" width="9.1" height="8.8"/>
	<rect x="366.3" y="186.1" class="st1" width="9.1" height="8.8"/>
	<rect x="333.5" y="185.9" class="st2" width="8.8" height="9.1"/>
	<rect x="333.5" y="185.9" class="st1" width="8.8" height="9.1"/>
	<rect x="399.1" y="251.8" class="st2" width="8.9" height="9"/>
	<rect x="399.1" y="251.8" class="st1" width="8.9" height="9"/>
	<rect x="333.4" y="284.8" class="st2" width="8.9" height="74.8"/>
	<rect x="333.4" y="284.8" class="st1" width="8.9" height="74.8"/>
	<rect x="300.4" y="284.9" class="st2" width="8.9" height="74.8"/>
	<rect x="300.4" y="284.9" class="st1" width="8.9" height="74.8"/>
	<rect x="399.1" y="317.8" class="st2" width="25.4" height="8.9"/>
	<rect x="399.1" y="317.8" class="st1" width="25.4" height="8.9"/>
	<rect x="399.1" y="350.7" class="st2" width="25.4" height="8.9"/>
	<rect x="399.1" y="350.7" class="st1" width="25.4" height="8.9"/>
</g>
</svg>
