<?xml version="1.0" encoding="utf-8"?>
<!-- Generator: Adobe Illustrator 28.1.0, SVG Export Plug-In . SVG Version: 6.00 Build 0)  -->
<svg version="1.1" id="Layer_1" xmlns="http://www.w3.org/2000/svg" xmlns:xlink="http://www.w3.org/1999/xlink" x="0px" y="0px"
	 viewBox="0 0 512 512" style="enable-background:new 0 0 512 512;" xml:space="preserve">
<style type="text/css">
	.st0{fill:#58595B;}
	.st1{fill:none;stroke:#F7F8F9;stroke-miterlimit:10;}
	.st2{fill:#0C9ED9;}
	.st3{fill:none;stroke:#F7F8F9;stroke-width:0.5;stroke-miterlimit:10;}
</style>
<g>
	<path class="st0" d="M255.6,491.2h16.2c48.9,0,97.8,0.1,146.7,0c31.9-0.1,54.7-27.1,48.4-57.4c-13.9-67.3-28-134.6-42.1-201.9
		c-5.2-24.7-23.4-39.1-48.6-39.2c-11.7-0.1-23.4,0-35.1,0c-5,0-9.8-1.5-10.3-6.8c-0.4-3.6,1.3-8,3.5-11.1
		c14.3-20.6,20.7-43.1,17.8-68.1c-4.6-39.9-33.5-73.1-72-83c-39.2-10.1-80.3,5-103.6,38.1c-24.2,34.2-23.9,78.5,0.8,112.9
		c2.8,4,5.7,7.7,3.1,13c-2.7,5.3-7.6,4.9-12.4,4.9c-10.8,0-21.6-0.1-32.5,0c-25.3,0.1-43.6,15.3-48.7,40
		C74.1,294.3,61,355.8,48.5,417.5c-2.3,11.3-4.9,23.3-3.5,34.5c3,23.6,23.3,39.2,48.3,39.2C147.4,491.3,201.5,491.2,255.6,491.2
		 M154.4,174.2c-15.5-30.4-18.8-60.8-8.7-92.2c7.5-23.3,21.4-42.4,41.1-56.9c40.2-29.6,94.9-30,135.3-1c23.6,16.9,39,39.7,45.4,68.1
		c6.4,28.2,3.2,55.4-11.4,82.1c7.4,0,13.5,0,19.7,0c33.8,0.2,59,19.8,66,52.8c14.5,68.3,28.9,136.6,42.6,205.1
		c7.9,39.6-21.1,75-61.6,77.1c-1.3,0.1-2.6,0.1-3.9,0.1c-108.9,0-217.8,0.1-326.7,0c-34.2,0-61.5-23.3-65.5-57.2
		c-1.3-10.8,1-22.4,3.1-33.3c12.7-64.1,25.7-128,38.9-192c6.5-31.4,32.2-52.3,64.3-52.7C139.7,174.1,146.4,174.2,154.4,174.2"/>
	<path class="st1" d="M255.6,491.2h16.2c48.9,0,97.8,0.1,146.7,0c31.9-0.1,54.7-27.1,48.4-57.4c-13.9-67.3-28-134.6-42.1-201.9
		c-5.2-24.7-23.4-39.1-48.6-39.2c-11.7-0.1-23.4,0-35.1,0c-5,0-9.8-1.5-10.3-6.8c-0.4-3.6,1.3-8,3.5-11.1
		c14.3-20.6,20.7-43.1,17.8-68.1c-4.6-39.9-33.5-73.1-72-83c-39.2-10.1-80.3,5-103.6,38.1c-24.2,34.2-23.9,78.5,0.8,112.9
		c2.8,4,5.7,7.7,3.1,13c-2.7,5.3-7.6,4.9-12.4,4.9c-10.8,0-21.6-0.1-32.5,0c-25.3,0.1-43.6,15.3-48.7,40
		C74.1,294.3,61,355.8,48.5,417.5c-2.3,11.3-4.9,23.3-3.5,34.5c3,23.6,23.3,39.2,48.3,39.2C147.4,491.3,201.5,491.2,255.6,491.2
		 M154.4,174.2c-15.5-30.4-18.8-60.8-8.7-92.2c7.5-23.3,21.4-42.4,41.1-56.9c40.2-29.6,94.9-30,135.3-1c23.6,16.9,39,39.7,45.4,68.1
		c6.4,28.2,3.2,55.4-11.4,82.1c7.4,0,13.5,0,19.7,0c33.8,0.2,59,19.8,66,52.8c14.5,68.3,28.9,136.6,42.6,205.1
		c7.9,39.6-21.1,75-61.6,77.1c-1.3,0.1-2.6,0.1-3.9,0.1c-108.9,0-217.8,0.1-326.7,0c-34.2,0-61.5-23.3-65.5-57.2
		c-1.3-10.8,1-22.4,3.1-33.3c12.7-64.1,25.7-128,38.9-192c6.5-31.4,32.2-52.3,64.3-52.7C139.7,174.1,146.4,174.2,154.4,174.2"/>
	<path class="st0" d="M255.5,173.4c30.5,0.2,55.5-24.3,55.9-54.8c0.4-30.6-24.6-56-55.4-56.1c-30.8-0.1-56,24.9-56,55.5
		C200.2,148.4,225,173.3,255.5,173.4 M255.2,191.7c-40.8-0.4-73.8-33.9-73.3-74.4c0.6-41.1,33.5-73.3,74.6-72.9
		c40.7,0.4,73.6,33.9,73.1,74.6C329.1,159.1,295.5,192,255.2,191.7"/>
	<path class="st1" d="M255.5,173.4c30.5,0.2,55.5-24.3,55.9-54.8c0.4-30.6-24.6-56-55.4-56.1c-30.8-0.1-56,24.9-56,55.5
		C200.2,148.4,225,173.3,255.5,173.4 M255.2,191.7c-40.8-0.4-73.8-33.9-73.3-74.4c0.6-41.1,33.5-73.3,74.6-72.9
		c40.7,0.4,73.6,33.9,73.1,74.6C329.1,159.1,295.5,192,255.2,191.7"/>
	<path class="st2" d="M266.6,344c0-9.7-0.1-19.5,0-29.2c0.2-17.8,11.5-29.3,29.2-29.5c17.5-0.2,35.1-0.1,52.6,0
		c7.8,0,12.3,3.6,12.3,9.4c0,5.9-4.5,9.4-12.3,9.4c-17.1,0.1-34.2,0-51.3,0c-9.2,0-12.3,2.9-12.3,11.9c-0.1,19.1-0.1,38.1,0,57.1
		c0,8.8,3.1,11.8,11.7,11.9c11.5,0.1,22.9,0.1,34.4,0c8.2-0.1,11.5-3.2,11.7-11.2c0.6-18.4-0.9-20-19.4-20c-2.8,0-5.7,0.2-8.4-0.2
		c-5.3-0.7-8.1-4.2-8-9.3c0.1-4.8,2.9-8.5,7.9-8.7c8-0.3,16.1-0.6,24,0.3c7.3,0.9,13.2,5.2,17.4,11.4c7.1,10.5,6.9,33.1-0.6,43.3
		c-5.5,7.4-12.9,11.4-22.2,11.4c-12.8,0.1-25.5,0.2-38.3,0c-16.7-0.3-27.9-11.4-28.3-28.3C266.4,363.9,266.6,353.9,266.6,344"/>
	<path class="st3" d="M266.6,344c0-9.7-0.1-19.5,0-29.2c0.2-17.8,11.5-29.3,29.2-29.5c17.5-0.2,35.1-0.1,52.6,0
		c7.8,0,12.3,3.6,12.3,9.4c0,5.9-4.5,9.4-12.3,9.4c-17.1,0.1-34.2,0-51.3,0c-9.2,0-12.3,2.9-12.3,11.9c-0.1,19.1-0.1,38.1,0,57.1
		c0,8.8,3.1,11.8,11.7,11.9c11.5,0.1,22.9,0.1,34.4,0c8.2-0.1,11.5-3.2,11.7-11.2c0.6-18.4-0.9-20-19.4-20c-2.8,0-5.7,0.2-8.4-0.2
		c-5.3-0.7-8.1-4.2-8-9.3c0.1-4.8,2.9-8.5,7.9-8.7c8-0.3,16.1-0.6,24,0.3c7.3,0.9,13.2,5.2,17.4,11.4c7.1,10.5,6.9,33.1-0.6,43.3
		c-5.5,7.4-12.9,11.4-22.2,11.4c-12.8,0.1-25.5,0.2-38.3,0c-16.7-0.3-27.9-11.4-28.3-28.3C266.4,363.9,266.6,353.9,266.6,344"/>
	<path class="st2" d="M169.6,333.8c12,2.6,20.4-0.1,27.6-9.5c8.7-11.5,19.1-21.8,28.7-32.6c5.8-6.5,11.1-7.8,15.5-3.9
		c4.5,4,3.8,9.9-2,16.4c-11.8,13.2-23.6,26.4-35.5,39.9c11,12.4,21.8,24.5,32.6,36.6c2,2.3,4.1,4.4,6,6.9c3.1,4.2,3.1,8.5-0.6,12.3
		c-3.3,3.4-9.3,3.2-12.8-0.6c-6.4-6.8-12.5-13.8-18.7-20.7c-4.8-5.3-10.1-10.3-14.1-16.1c-6.5-9.5-15.2-11.1-26.2-8.9
		c-0.1,2.1-0.4,4.3-0.4,6.6c0,10.6,0.1,21.2-0.1,31.8c-0.1,6.5-3.9,10.2-9.4,10.2c-5.5,0-9.3-3.8-9.3-10.2c-0.1-32-0.1-64.1,0-96.1
		c0-6.3,3.9-10.3,9.3-10.4c5.3,0,9.3,3.9,9.4,10.2c0.2,10.4,0.1,20.8,0.1,31.2V333.8z"/>
	<path class="st3" d="M169.6,333.8c12,2.6,20.4-0.1,27.6-9.5c8.7-11.5,19.1-21.8,28.7-32.6c5.8-6.5,11.1-7.8,15.5-3.9
		c4.5,4,3.8,9.9-2,16.4c-11.8,13.2-23.6,26.4-35.5,39.9c11,12.4,21.8,24.5,32.6,36.6c2,2.3,4.1,4.4,6,6.9c3.1,4.2,3.1,8.5-0.6,12.3
		c-3.3,3.4-9.3,3.2-12.8-0.6c-6.4-6.8-12.5-13.8-18.7-20.7c-4.8-5.3-10.1-10.3-14.1-16.1c-6.5-9.5-15.2-11.1-26.2-8.9
		c-0.1,2.1-0.4,4.3-0.4,6.6c0,10.6,0.1,21.2-0.1,31.8c-0.1,6.5-3.9,10.2-9.4,10.2c-5.5,0-9.3-3.8-9.3-10.2c-0.1-32-0.1-64.1,0-96.1
		c0-6.3,3.9-10.3,9.3-10.4c5.3,0,9.3,3.9,9.4,10.2c0.2,10.4,0.1,20.8,0.1,31.2V333.8"/>
</g>
</svg>
