<?xml version="1.0" encoding="utf-8"?>
<!-- Generator: Adobe Illustrator 28.1.0, SVG Export Plug-In . SVG Version: 6.00 Build 0)  -->
<svg version="1.1" id="Layer_1" xmlns="http://www.w3.org/2000/svg" xmlns:xlink="http://www.w3.org/1999/xlink" x="0px" y="0px"
	 viewBox="0 0 512 512" style="enable-background:new 0 0 512 512;" xml:space="preserve">
<style type="text/css">
	.st0{fill:#58595B;}
	.st1{fill:#0C9ED9;}
</style>
<g>
	<path class="st0" d="M448.6,209c-0.2,5-0.3,10.2-0.2,15.2l0,1.5H342.6l-0.1-1.3c-0.8-7.7-0.6-15.6-0.5-23.2
		c0.3-15.1,0.7-29.4-5.9-43.4l-0.7-1.4l1.4-0.6c0.9-0.4,1.8-0.8,2.7-1.2c5.3-2.5,10.9-5,16.7,0.8c15.5,14.2,39.4,14,55.4-0.3
		c3.5-3.1,6.8-3.7,11.2-2.1C450,163.3,449.3,186.5,448.6,209 M331.1,225.7c0,6.7-0.1,13.5-0.1,20.3v1.5H181l-0.1-1.4
		c-0.6-13.9-0.5-28.1-0.4-41.7c0-7.1,0.1-14.5,0.1-21.7c0.1-21.5,14.3-38.6,35.2-42.7c2.3-0.5,5.6,0.5,7.3,2.2
		c19.6,18.4,47.1,18.5,66.8,0.2c1.8-1.6,5-2.6,7.3-2.1c18.5,3.5,33.3,20.8,33.6,39.3C331.3,194.9,331.2,209.8,331.1,225.7
		 M175.7,157.8c-6.5,13.9-6.1,28-5.8,43c0.2,7.8,0.4,15.8-0.5,23.7l-0.1,1.3H64.1v-1.5c0-4.4-0.1-8.9-0.2-13.3
		c-0.2-9.8-0.4-20,0.5-29.8c1.3-13.8,13.6-26.3,28.6-29.1c2.2-0.4,5.2,0.4,6.9,1.9c18,16,40.5,16.1,58.6,0.3
		c4.7-3.7,10.2-1.3,14.5,0.7c0.6,0.3,1.3,0.6,1.9,0.8l1.4,0.6L175.7,157.8z M418.6,141.2c-4.4-0.7-7.8-0.4-11,3.2
		c-6.5,7.2-14.8,11.2-23.5,11.2h-0.2c-9,0-17.7-4.1-24.6-11.6c-1.7-1.8-5.1-3.2-7.1-3c-5.3,0.8-10.6,2.1-16.2,3.6
		c-2.2,0.6-4.5,1.2-6.8,1.7l-0.8,0.2l-0.6-0.5c-10.6-10-17.9-14.1-30.1-16.7c-6.3-1.3-10.3-0.2-14.2,4.2c-6.7,7.6-16.5,12-26.7,12.1
		c-9.8,0.1-19.3-4-25.8-11.1c-5.7-6.2-11.2-6.5-18.6-4.9c-10.9,2.4-20.7,8.1-29,16.8l-0.6,0.7l-0.9-0.3c-1.9-0.6-3.7-1.3-5.4-1.9
		c-4-1.4-7.7-2.7-11.5-3.6c-4.4-1.1-8.1-1-11.5,2.7c-6.8,7.4-15,11.4-23.6,11.5c-0.1,0-0.2,0-0.3,0c-8.9,0-17.4-4-24.8-11.7
		c-1.6-1.7-4.7-3-6.9-2.9c-24.1,0.5-44.7,21.4-44.9,45.8c-0.1,9.7-0.1,19.6-0.1,29.1c0,4,0,8,0,12c0,7.7,1.2,8.8,8.8,8.8
		c25.8,0,51.4,0,77.1,0h29.7h1.5l0,5.6c0,2.7,0,5.1,0,7.5c0.1,7.4,1.3,8.6,8.6,8.6c29.7,0,59.3,0,89,0H328c7.1,0,10.9-0.1,12.4-1.6
		c1.5-1.5,1.6-5.2,1.6-12.2v-7.9h32.2c25.6,0,51.1,0,76.7,0c6.2,0,7.7-1.5,7.8-7.6l0-4.1c0-12.2,0-24.7,0-37.1
		C458.7,164.8,441.4,144.7,418.6,141.2"/>
	<path class="st0" d="M351.1,69.1c2-16.3,17.1-28.5,33.7-27.3c5.8,0.4,11.3,2.2,15.9,5.1c2.7,1.7,5.1,3.9,7.2,6.5
		c4,5.1,6.5,11.7,7.7,20.1c0.5,3.5,0.8,7,0.8,10.4c0.1,5.7-0.3,11.1-1.4,16.2c-3.1,15.3-16.3,26.2-31.6,26.2c-0.3,0-0.6,0-1,0
		c-16.7-0.5-29.7-12.2-31.6-28.5C349.8,88.5,349.9,78.9,351.1,69.1 M339.9,94.4c0,18.2,12.3,34.8,29.8,40.3
		c17.8,5.6,37.2-0.6,48.2-15.5c8.2-11,9-23.9,8.7-35c-0.1-1.5-0.1-3-0.2-4.5c-0.1-3.2-0.2-6.5-0.5-9.7
		c-2.9-25.3-22.6-37.6-40.8-38.6c-0.8,0-1.5-0.1-2.3-0.1c-17.5,0-36.6,10.2-41.8,33.8c-1.4,7.9-1.3,16.4-1.2,24.5
		C339.8,91.3,339.9,92.8,339.9,94.4"/>
	<path class="st0" d="M96.6,69.1c2-16.3,17.1-28.5,33.7-27.3c5.8,0.4,11.3,2.2,15.9,5.1c2.7,1.7,5.2,3.9,7.2,6.5
		c4,5.1,6.5,11.7,7.7,20.1c0.5,3.5,0.8,7,0.8,10.4c0.1,5.7-0.3,11.1-1.4,16.2c-3.1,15.3-16.3,26.2-31.6,26.2c-0.3,0-0.6,0-1,0
		c-16.7-0.5-29.7-12.2-31.6-28.5C95.3,88.5,95.4,78.9,96.6,69.1 M85.4,94.4c0,18.2,12.3,34.8,29.8,40.3c17.8,5.6,37.2-0.6,48.2-15.5
		c8.2-11,9-23.9,8.7-35c-0.1-1.5-0.1-3-0.2-4.5c-0.1-3.2-0.2-6.4-0.5-9.6c-2.9-25.3-22.6-37.6-40.8-38.6c-0.8,0-1.5-0.1-2.3-0.1
		c-17.5,0-36.6,10.2-41.8,33.8c-1.4,7.9-1.3,16.4-1.2,24.5C85.3,91.3,85.4,92.8,85.4,94.4"/>
	<path class="st0" d="M220.3,46.3c2.2-18.2,19.1-31.9,37.7-30.5c6.4,0.5,12.6,2.5,17.8,5.8c3.1,1.9,5.8,4.4,8,7.2
		c4.5,5.7,7.3,13.1,8.6,22.5c0.5,4,0.9,7.9,0.9,11.7c0.1,6.4-0.4,12.5-1.5,18.1c-3.5,17.1-18.3,29.3-35.3,29.3c-0.4,0-0.7,0-1.1,0
		c-18.7-0.6-33.3-13.7-35.3-31.9C218.9,68.1,219,57.3,220.3,46.3 M207.3,74.7c0,20.5,13.9,39.2,33.6,45.5
		c20.1,6.4,41.9-0.7,54.4-17.4c9.2-12.5,10.2-27,9.9-39.5c-0.1-1.7-0.1-3.4-0.2-5.1c-0.1-3.6-0.3-7.3-0.6-10.9
		c-3.2-28.6-25.4-42.4-46-43.5c-0.9,0-1.7-0.1-2.6-0.1c-19.7,0-41.3,11.5-47.2,38.1c-1.5,8.9-1.5,18.4-1.4,27.6
		C207.3,71.2,207.3,72.9,207.3,74.7"/>
	<path class="st0" d="M493.9,320.8c-28.7,19.9-58,40-86.4,59.4c-17.9,12.3-35.9,24.6-53.8,36.9c-16.7,11.4-36.1,16.3-56.2,14.2
		c-16.9-1.8-34-5-50.5-8c-6.7-1.2-13.6-2.5-20.4-3.7c-4.9-0.9-9.9-1.8-14.8-2.7c-6.6-1.2-13.5-2.5-20.2-3.6
		c-8.6-1.4-17,0.5-25.1,5.6c-8.9,5.6-17.9,11.3-27.1,17.1l-13.3,8.4l-29.8-97.8l1.5-0.4c11.2-3.1,19.4-10,28-17.4
		c2.5-2.2,5.2-4.4,7.9-6.6c28.8-22.7,60.9-26.8,95.3-12.3c13.1,5.9,26.6,11.9,41.8,11.5c8.1,0,16.2,0,24.3,0c11.3,0,23,0,34.6,0.1
		h0.1c17.3,0,33.1,12.6,36.7,29.5l0.4,1.8l-1.8,0c-26.8-0.3-55.2,0.2-86.6,1.6c-2.1,0.1-3.8,0.8-4.8,2c-0.9,1.1-1.2,2.5-0.9,4.1
		c0.4,2.4,1.5,5,6.8,4.3c22.4-3,45.2-1.8,67.2-0.7c6.1,0.3,12.4,0.6,18.6,0.8l1.6,0.1c6.8,0.6,10.4,0.6,11.5-5.8
		c0.4-2.1,2-4.4,3.9-5.4c28.8-15.7,52.9-28.6,75.8-40.8c12.6-6.7,26.5-4.6,36.1,5.6l1.2,1.2L493.9,320.8z M130.7,495.8l0.6,1.9H36.9
		l-0.2-1.3L14.6,314.9l1.6,0c7.3,0,14.6,0,21.8,0c10.7,0,21.7,0.1,32.7-0.1c3.6,0,5.3,1.3,6.4,4.7c8.7,28.7,17.6,57.9,26.1,86.1
		C112.3,435.2,121.6,465.7,130.7,495.8 M341,309.1c18.2-13.2,34.4-15.4,47.1-6.6l1.9,1.4l-8.6,4.7c-6.7,3.6-13,7-19.5,10.4
		c-0.9,0.5-2.1,0.8-3.3,0.8c-0.7,0-1.4-0.1-2-0.4c-3.9-1.8-7.8-3.8-11.5-5.7c-1.3-0.7-2.6-1.3-3.9-2l-2.1-1.1L341,309.1z
		 M411.5,304.3c9.2-4.8,19.2-2.9,26.8,5.2l1.3,1.4l-63,34l-9.3-16.7l1.3-0.7c5.1-2.8,10.2-5.5,15.4-8.3
		C393,314.3,402.3,309.2,411.5,304.3 M451.1,304.6l-1,0.5l-0.8-0.8c-14.8-14.3-29.2-16.9-45.1-8.3c-1.8,1-4.8,0.5-6.3-0.6
		c-16.9-11.3-33.9-11.8-52.2-1.4c-2.7,1.5-5.4,3.2-8,4.8c-7.4,4.6-15.1,9.3-23.4,11.4c-7.7,1.9-15.9,1.5-23.9,1.2
		c-4-0.2-8-0.4-12-0.3c-15,0.4-28.8-2.6-42-9.2c-22.6-11.3-47-13.7-72.6-7c-16.9,4.4-32.3,13.6-47.3,28.2c-7,6.8-14,10.9-22.1,12.8
		l-1.3,0.3l-0.4-1.3c-0.8-2.5-1.6-5-2.3-7.4c-1.9-5.9-3.6-11.5-5.2-17.3c-1.2-4.1-3.3-5.7-7.5-5.7h-0.1c-14.2,0.1-28.7,0.1-42.7,0.1
		c-4.4,0-8.8,0-13.2,0c-3.5,0-7.1,0-10.6,0c-3.4,0-5.4,0.6-6.5,1.8c-1.1,1.2-1.4,3.4-1,6.8l23,188.3c0.7,5.6,2.2,7,7.8,7
		c33.9,0,67.7,0,101.6,0c3.5,0,5.7-0.7,6.7-2c1-1.4,1-3.8,0-7.3l-1.5-5.1c-3.3-11-6.7-22.4-10.3-33.6c-1.1-3.4-1-6,2.9-8.4
		c12.9-7.9,25.9-16.2,38-24c6.4-4.1,13.5-5.3,22.1-3.7c8.6,1.6,17.1,3.2,25.7,4.8c23.3,4.4,47.5,9,71.3,12.4
		c25,3.6,47.9-1.6,68-15.3c22-15,44.4-30.3,65.9-45.2c8.8-6,17.6-12.1,26.4-18.1l11.9-8.2c13.7-9.4,27.4-18.8,41-28.2
		c2.7-1.9,4.1-3.5,4.3-5.1c0.2-1.4-0.6-3-2.4-4.9C489.5,297.5,471,293.5,451.1,304.6"/>
	<path class="st1" d="M79.9,460.6c0.1,0,0.1,0,0.1,0c2.4,0,4.6,1,6.2,2.6c1.6,1.6,2.5,3.8,2.4,6.2c-0.1,4.9-3.9,8.7-8.6,8.8h-0.1
		c-2.2,0-4.5-1-6.2-2.8c-1.8-1.8-2.8-4.2-2.7-6.4C71.1,464.3,75.1,460.6,79.9,460.6 M79.7,488.5c5.2,0,10.3-2,14-5.7
		c3.6-3.6,5.6-8.4,5.6-13.5c0-5.1-2.1-10-5.8-13.7c-3.7-3.7-8.6-5.8-13.7-5.8h0c-10.3,0-19.1,8.8-19.1,19.2
		C60.5,480.1,68.8,488.5,79.7,488.5"/>
</g>
</svg>
