<?xml version="1.0" encoding="utf-8"?>
<!-- Generator: Adobe Illustrator 28.1.0, SVG Export Plug-In . SVG Version: 6.00 Build 0)  -->
<svg version="1.1" id="Layer_1" xmlns="http://www.w3.org/2000/svg" xmlns:xlink="http://www.w3.org/1999/xlink" x="0px" y="0px"
	 viewBox="0 0 512 512" style="enable-background:new 0 0 512 512;" xml:space="preserve">
<style type="text/css">
	.st0{fill:#58595B;}
	.st1{fill:#0C9ED9;}
</style>
<g>
	<path class="st0" d="M165.5,353.5L141,332.7l35.3-35.3l14.7,14.7L165.5,353.5z M135.7,323.8l-2.2,2.2l-2.2-2.2
		c-2.3-2.3-4.5-4.6-6.8-6.8c-6.5-6.5-12.6-12.6-18.6-19.1c-2.2-2.3-2.6-5.8-2.9-8.7l0-0.3c-0.3-2.3-0.2-4.6-0.1-7c0-1.1,0-2.2,0-3.3
		v-4.4l4.2,1.4c17.8,6.2,35.1,6.2,52.8,0.1l4.4-1.5l-0.2,4.6c-0.1,1.7,0,3.4,0.1,5c0.3,5.7,0.6,12.3-6,17.9
		c-5.3,4.5-10.2,9.5-15.3,14.8C140.5,319,138.1,321.4,135.7,323.8 M101.8,353.5l-5.5-9c-2.4-4-4.8-7.8-7.2-11.7
		c-0.8-1.3-1.7-2.7-2.5-4c-2.5-4-5.1-8.1-7.4-12.3c-1.3-2.3-0.9-6.2,0.8-8.3c1.9-2.5,4.1-4.7,6.3-6.9c0.8-0.8,1.6-1.7,2.4-2.5
		l2.2-2.3l35.9,35.7L101.8,353.5z M82.4,246.8c-6.7-8.8-11-17.9-13.1-27.6c-1.6-7.4-4.8-10.1-13.3-11.1c-2.9-0.3-5.3-1.6-7-3.7
		c-2.2-2.9-3-7-2.3-12.3c0.5-3.8,1.9-6.5,4.1-8.1c1.3-1,3.6-2,7-1.3c2.6,0.5,4.8,2.1,6.4,3.5c4.1,3.5,7.1,3.6,10.8,0.4
		c3.8-3.2,7.3-6.7,10.3-10.1c0.9-1.1,1.4-2.3,1.3-3.4c-0.1-1-0.7-2-1.7-2.8c-2.2-1.8-4-1.6-6.2,0.5c-1.4,1.4-2.8,3-4.1,4.3
		c-0.6,0.6-1.1,1.2-1.6,1.7l-1.5,1.6l-2-0.8c-1.1-0.4-2.1-0.8-3.1-1.2c-2.4-0.9-4.8-1.8-7-3c-2.2-1.2-3.6-3.9-4-5.9
		c-5.5-29.3,3.5-53.8,26.9-72.8c19.2-15.7,44.3-21.6,68.8-16.2c24.3,5.4,44.5,21.2,55.1,43.2c6.7,13.9,8.6,29.3,5.6,45.8
		c-0.6,3-2.7,5.5-5.6,6.4c-2.6,0.8-5.3,0.1-7.3-1.9c-5.9-6-13.1-5.9-21.4-5.9c-27.4,0.2-48.9-4.8-67.5-15.7
		c-6.2-3.6-11.7-8.4-17-13.1c-1.5-1.3-3-2.6-4.5-3.9c-4.8-4-6.6-2-7.6-1.1c-0.9,0.9-2.7,2.9,0.8,7c8.9,10.5,20.2,18.4,34.4,24.4
		c18.9,8,40.4,11.8,65.7,11.6c3.9,0,8.4,0.5,12.2,4.5c3.5,3.8,6.9,4.6,11.5,3.1c5-1.7,8.3-0.7,10.1,0.5c1.7,1.1,3.9,3.3,4.4,7.7
		c0.8,6.4,0.2,10.3-2,13c-2.4,3-6.2,3.6-8.8,3.9c-5.9,0.5-10,4.3-11.4,10.3c-5.1,22.2-18.1,38.3-38.7,47.6
		c-7.7,3.5-16.2,5.2-24.8,5.2C114.6,271.2,94.2,262.4,82.4,246.8 M97.7,69.3c5.3-15.6,20.7-26.4,36.7-25.7
		c16.7,0.7,31.3,11.5,34.7,25.7l1.3,5.5l-5.3-1.8c-21.6-7.1-42.3-7.1-63.4,0.3l-6.1,2.1L97.7,69.3z M235.3,323.1
		c-5.4-2.5-10.9-4.8-16.2-7.2c-5-2.2-10.2-4.4-15.3-6.8c-2.8-1.3-5.5-3.1-7.8-5.2c-2.5-2.3-4.9-4.8-7.2-7.1c-3.4-3.5-7-7-10.6-10.2
		c-3.3-2.8-5.2-7-5-11.3c0.1-3.9,1.9-7.3,4.9-9.6c14.4-10.9,23.8-25,27.8-41.9c1.1-4.7,3.6-6.9,8.4-7.3c2.2-0.2,5-1.4,7.4-3.2
		c4.5-3.3,7.5-9.4,8-16.3c0.5-7.3-1.8-14.3-6.2-18.6c-3-2.9-3.3-5.6-3-9c0.8-7.1,1.7-15.2,1.2-22.8c-1.4-23.7-12.2-43.7-32.1-59.5
		c-5.4-4.3-9-8.5-10.5-16.3c-4.2-21.7-24.7-37.2-47.6-36C108.1,36,89.7,52.9,86.9,75.9c-0.3,2.7-2.2,5.8-4.6,7.6
		c-30.1,22.3-41.7,50.4-35.7,85.8c0.3,1.9,0.3,6.1-2.1,8.2c-7.3,6.5-7.4,15.2-6.3,23.6c1,7.9,7.6,15,14.5,15.5c6.2,0.4,8,4,8.9,7.9
		c3.9,16,12.8,29.5,26.3,40.1l0.1,0.1c3.1,2.4,6.6,5.2,6.2,11.3c-0.2,4.2-0.5,9.4-6.7,11.6c-0.2,0.2-0.4,0.5-0.6,0.7
		c-10.9,13.8-25.5,23.6-46,30.9c-2.1,0.7-4.2,1.7-6.3,2.7c-0.9,0.4-1.7,0.8-2.6,1.2c-11.6,5.2-20,13.2-24.8,23.9
		c-1.3,2.8-2.2,5.8-3.1,8.9c-0.4,1.3-0.8,2.6-1.2,3.9V383c0.1,0.4,0.2,0.8,0.2,1.1c0.3,1.2,0.5,2.5,0.6,3.8c0.3,7,0.6,13.9,0.8,20.8
		l0.9,22.3c0.5,13.1,1,26.6,1.6,39.9c0.1,2.4,0.8,4.3,2,5.3c0.8,0.7,1.8,1,3,0.9c2.8-0.2,4.4-2.5,4.2-5.9c-0.5-12.7-1.1-25.6-1.6-38
		l-0.5-11c-0.2-5.5-0.5-10.9-0.8-16.4c-0.6-12.5-1.2-25.4-1.6-38.2c-0.3-7.6,1.5-14.2,5.5-20.1l2.4-3.5l2.7,3.3
		c2.2,2.6,4.3,5.2,6.4,7.8c4.9,5.9,9.5,11.4,14,17.1c6.3,7.9,9.3,17.4,9.3,29V466c0,0.7,0,1.4,0,2.1c0,1.8-0.1,3.5,0.1,5.1
		c0.3,2.6,2.1,4.3,4.4,4.1c2.8-0.2,4-1.5,4.2-4.2c0.1-1.2,0.1-2.5,0.1-3.8v-0.9c0-6.3,0-12.7-0.1-19c-0.1-14.1-0.2-28.8,0.3-43.2
		c0.6-18.4-5.1-33.9-17.6-47.4c-3.7-4.1-7.2-8.3-10.8-12.8c-1.7-2.1-3.4-4.2-5.2-6.4l-2.6-3.2l44-19.5l8,13
		c4.7,7.7,9.4,15.3,14.1,22.9c3.2,5.1,6.5,8,9.9,8.5c3.4,0.6,7.5-1.2,12.2-5.1l16.4-13.8v32.2c0,31.5,0,62.9,0,94.4
		c0,1.9,0,3.6,0.4,5.1c0.9,3.2,3,3.4,4.5,3.3c2.3-0.2,3.5-1.3,3.8-3.6c0.2-1.7,0.3-3.6,0.3-6.1c0-30.5,0-61,0-91.4v-34l9.6,8.2
		c2.8,2.4,5.4,4.6,7.9,6.7c3.8,3.2,7.6,4.6,11,4.1c3.4-0.5,6.5-3,9.1-7.2c3.9-6.3,7.8-12.6,11.6-18.9c2.4-3.9,4.8-7.9,7.2-11.8
		c0.6-1,1.3-2,2-2.9c0.3-0.4,0.6-0.9,0.9-1.3l1.5-2.1l43.6,19.4l-2.7,3.2c-2.2,2.6-4.2,5.1-6.2,7.5c-4.3,5.2-8.4,10.1-12.6,15
		c-10.1,11.6-15,25.1-15,41c0.1,14.5,0,29.2,0,43.5c0,7.4,0,14.7,0,22.1c0,4.8,1,6.8,1.8,7.6c0.4,0.4,1.1,0.9,2.8,0.9h0
		c1.6,0,4.6,0,4.6-8.6c0-6,0-12,0-18.1c0-16.1,0.1-32.7-0.1-49c-0.1-11.8,3-21.4,9.3-29.5c4.5-5.7,9.1-11.2,13.9-17.1
		c2.1-2.5,4.2-5,6.3-7.6l2.7-3.2l2.4,3.5c3.8,5.7,5.5,12,5.2,19.7c-0.5,15.6-1.1,31.1-1.7,45.6c-0.5,13.3-1.1,26.6-1.7,39.9
		l-0.8,18.2c0,0.3,0,0.5,0,0.8c0,1.6,0.6,5.4,4.3,5.5c1.2,0.1,2.2-0.3,3-1c0.9-0.9,1.5-2.2,1.6-3.9c0.4-9.2,0.9-18.4,1.3-27.5
		c1.3-25.4,2.6-51.6,3.1-77.4C264.9,347,255.1,332.1,235.3,323.1"/>
	<path class="st0" d="M427.2,273.8c-0.1,0.1-0.1,0.3-0.2,0.5c-0.3,0.6-0.7,1.5-1.3,2.4c-8.3,12.4-17.1,25.7-26,39.1
		c-2.5,3.8-5.2,5.8-8.2,6.1c-0.3,0-0.6,0-0.8,0c-2.8,0-5.6-1.4-8.6-4.4c-3.5-3.4-7-6.7-10.7-10.2l-7.7-7.4l49.6-43.4l15,15.3
		L427.2,273.8z M366.8,327.4l-0.6,2.4H348l-0.4-2.7c-1.2-9.1,1.5-15.3,8.3-19.1l1.5-0.8l1.5,0.9C366.3,312.1,369,318.8,366.8,327.4
		 M343.4,307.2c-4,4-7.8,7.7-11.7,11.4c-2.8,2.7-5.5,3.4-7.5,3.4c-0.3,0-0.6,0-0.9,0c-1.9-0.2-4.7-1.2-7-4.6
		c-7.1-10.4-14.1-21-20.9-31.2c-2.6-4-5.3-7.9-7.9-11.8l-1.4-2.1l15.5-15.7l49.5,43.3l-2.4,2.4C346.9,303.8,345.1,305.5,343.4,307.2
		 M395,260.8c-8.5,6.6-16.4,13.7-24.8,21.2c-3.5,3.1-7.1,6.4-10.7,9.6l-2.1,1.8l-10.5-9.2c-10.8-9.4-20.9-18.3-31.2-27.5
		c-1.6-1.4-2.5-3.7-2.7-6.9c-0.2-2.4-0.2-4.8-0.1-7.4c0-1.1,0-2.2,0-3.4v-5.3l4.7,2.6c27,15,53,15,79.6,0l4.3-2.4l0.5,6.5
		C402.5,247.3,403,254.6,395,260.8 M299.6,203.7c-2.9-6-4.8-12.3-6.6-18.2c-1.9-6.4-6-9.9-12.1-10.3c-7.8-0.5-9.5-5.2-9.8-7.9
		c-0.1-0.6-0.2-1.3-0.3-1.9c-0.6-4.3-1.6-10.7,4.5-14.4c3.3-2.1,8.9-0.6,11.5,1.3c6.3,4.7,8.2,4.7,13.7,0c2.3-2,4.6-4.3,7.2-7.1
		c4.4-4.9,2-7.2,1.2-7.9c-1.5-1.4-2.4-1.3-2.7-1.3c-1.4,0-3.2,1.2-5.3,3.4c-1,1.1-2,2.2-2.9,3.1l-2.3,2.5l-1.7-0.4
		c-10.9-2.3-12.8-10.7-13.2-16.7c-0.3-4.5-0.7-9.1-1.2-13.6c-0.7-7.1-1.4-14.5-1.6-21.9c-0.4-14.6,9.4-26.1,23.2-27.4
		c1.6-0.2,3.7-1.2,6-2.8c18.5-13.9,40-19.8,65.7-18.2c13.3,0.8,23.7,3.4,33,7.9c19.3,9.4,30.3,25.6,33.6,49.6
		c1.5,11.2,1.1,23.2-1.2,35.6l-0.3,1.6l-1.5,0.7c-3,1.4-5.5,1.5-7.6,0.6c-3-1.3-4.2-4.4-4.9-6.6c-0.7-2.3-1.7-4.5-2.8-6.9
		c-0.5-1.1-1-2.3-1.5-3.4c-1.4-3.3-3.3-4.3-6.8-3.6c-20.2,4.1-36.8,5.2-52.2,3.5c-21.1-2.3-36.3-9.2-47.8-21.6
		c-1.5-1.6-4.1-3-5.6-2.9c-1.8,0.1-2.6,1.1-3,1.9c-0.8,1.7-0.3,4,1.2,5.8c8.5,10.3,19.6,17.3,33.7,21.6c19.2,5.8,40.2,6.6,65.9,2.3
		c2.5-0.4,8.4-1.4,10.3,5.8c0.3,1.1,0.8,2.3,1.4,3.6c0.2,0.5,0.5,1.1,0.7,1.6c3.3,7.9,5.2,9.1,13.8,8.5c3.7-0.2,9.2-0.6,12,5.4
		c2.3,4.9,1.6,14.1-2.3,17.5c-2.3,2-5.4,2.5-6.6,2.6c-7.2,0.8-11,4.1-12.7,10.9c-6.7,27.7-24.2,44.9-52,51.3
		c-3.9,0.9-7.9,1.3-12,1.3C334.3,238.6,309.5,224.4,299.6,203.7 M468.8,280.2c-17.4-5.6-37-13.8-50.9-32.1c-0.4-0.5-1.2-1-1.9-1.5
		c-0.5-0.3-0.9-0.6-1.3-0.9c-0.1,0-0.2-0.1-0.3-0.1c-0.7-0.3-1.8-0.8-2.5-2c-2.1-3.5-0.4-19.2,2.3-22.4c7.4-8.7,12.5-18.3,15-28.5
		c1.2-5,3.4-8.5,10-9.2c2.3-0.3,5.3-1.9,8.1-4.5c7.3-6.7,8.6-21.6,2.6-30.1c-2.5-3.5-3.3-7.1-2.5-11.6c2.3-13.2,2.6-26.1,0.7-38.3
		c-3.3-21.5-12.3-37.4-27.7-48.6c-11.8-8.5-26-13.4-43.7-15c-28.6-2.5-52.4,3.4-72.8,18.1c-2,1.4-4.6,2.5-7.8,3.4
		c-13.1,3.4-21.5,10.9-24.9,22.5c-2,6.7-2.9,13.3-2.5,19.1c0.4,7.8,1.5,15.7,2.5,23.4c0.6,4.5,1.2,9.1,1.7,13.7
		c0.2,2.1-0.4,6.1-3,7.9c-5.4,3.8-8.1,9.1-8.6,17.4c-0.8,13.1,4.7,20.3,17.8,23.6c3.2,0.8,5.2,4.5,5.8,6.7
		c2.7,10.5,7.5,20.1,14.8,29.4c2,2.5,3.3,6.3,3.6,10.2l0.1,1.3c0.4,5.4,1.1,13.6-7.6,17.3c-11.3,14.2-26.5,23.8-46.3,29.6
		c-4.8,1.4-9.5,3.4-13.6,5.2c-4.5,2-7.7,3.7-10.5,5.6c-1.9,1.3-2.2,3.1-1.1,5.3c0.8,1.5,2.1,3,5.7,1.9c0.6-0.2,1.3-0.6,2.1-1
		c0.7-0.4,1.6-0.9,2.5-1.3c10.6-4.3,21.3-8.6,32-12.9l11.7-4.7l1.4,2.1c2.8,4.2,5.5,8.3,8.3,12.4c6.8,10.2,13.2,19.8,19.7,29.7
		c4,6.1,8.9,9.3,15.1,9.7c2.2,0.2,4.7-0.3,7.2-0.8c1.3-0.2,2.5-0.5,3.9-0.7l2.9-0.4l0.6,2.9c0,0.1,0,0.2,0.1,0.2
		c0.1,0.4,0.3,1.1,0.3,2c-2,45.4-3.9,90.7-5.9,136.1c-0.1,2.8,0.4,4.9,1.5,6.1c0.7,0.7,1.6,1.1,2.8,1.1c0.1,0,0.1,0,0.2,0
		c3.8,0,4.5-3.7,4.6-6c0.8-18.2,1.6-36.4,2.3-54.6c0.6-14.1,1.2-28.3,1.8-42.4c0.3-7.3,0.7-14.6,1-21.9c0.2-3.3,0.3-6.6,0.5-10
		l0.1-3h21.3l4.4,98.4c0.2,3.5,0.3,7,0.4,10.6c0.3,7.8,0.6,15.9,1.1,23.9c0.2,3.3,1.9,5.1,4.6,5.1c2.8-0.1,4.4-2.3,4.4-5.8
		c0-2.8-0.2-5.7-0.4-8.4c-0.1-2-0.3-4-0.4-6c-1.5-33.8-3.2-72.1-4.8-110.1c-0.1-3.4-0.1-6.8-0.1-10.2c0-1.6,0-3.1,0-4.7v-4.1l3.9,1
		c13.8,3.6,19.3,1.5,27.1-10.2c1.3-2,2.6-4,4-6c1.6-2.5,3.3-4.9,4.9-7.4c4-6,8-11.9,12-18l7-10.4l2.3,0.9c3.8,1.5,7.5,2.9,11.3,4.4
		c9.4,3.6,19.2,7.4,28.6,11.3c3.2,1.3,5.8,3.3,8.6,5.5c1.2,0.9,2.5,1.9,3.8,2.8l3.1,2.1l-2.7,2.7c-2.6,2.6-5.1,5.1-7.5,7.5
		c-5.4,5.5-10.6,10.6-15.9,15.7c-11.3,10.9-16.8,23.9-16.6,39.7c0.2,23.3,0.2,46.9,0.1,69.7c0,9.8,0,19.6,0,29.5v0.7
		c0,1.2,0,2.4,0.1,3.5c0.3,2.7,1.5,4,4.2,4.1c1.7,0.1,3.7-0.3,4.5-4c0.2-0.7,0.1-1.7,0.1-2.6c0-0.4,0-0.8,0-1.2l0-19.5
		c0-27.2,0-54.5,0-81.7c0-6.6,0.7-16.3,7.1-23.7c5.8-6.7,12-13.1,18-19.3c2.6-2.7,5.2-5.3,7.7-8l1.7-1.8l4.9,2.8v1.8
		c0,2.8,0,5.5,0.1,8.3c0.1,6,0.1,12.1-0.1,18.2c-0.7,20.4-1.6,41.1-2.4,61.1c-0.4,10-0.8,20-1.2,30l-0.2,5.4
		c-0.4,9.5-0.8,19.4-1,29.1c-0.1,3.1,1.6,5.1,4.3,5.2c2.5,0.1,4.2-1.7,4.4-4.7c0.4-4,0.6-8,0.7-11.8l0.4-10.1
		c0.8-19.3,1.7-39.3,2.4-58.9c0.2-4.4,0.3-8.8,0.5-13.3c0.7-17,1.4-34.5,1.7-51.7c0.2-11.8-4.5-22.6-13.9-32.2
		C488.5,287.5,479.8,283.7,468.8,280.2"/>
	<path class="st1" d="M314.6,365.1c-4.5-0.1-9-0.2-13.6-0.2c-4.4,0-8.8,0.1-13.2,0.2c-3.2,0.1-5.2,1.8-5.1,4.4
		c0,2.6,2.2,4.4,5.4,4.5c2.9,0.1,5.9,0.1,8.8,0.1c1.3,0,2.7,0,4,0c1.4,0,2.8,0,4.1,0c3,0,6.2,0.1,9.2-0.1c3.2-0.1,5.4-1.9,5.4-4.5
		C319.7,366.9,317.8,365.1,314.6,365.1"/>
	<path class="st1" d="M105.5,398.3c-2.4-0.1-4.7-0.1-7.2-0.1c-1,0-2.1,0-3.2,0c-1.2,0-2.3,0-3.5,0c-1.1,0-2.2,0-3.2,0
		c-1.4,0-2.7,0-4.1,0.1c-2.6,0.2-4.4,1.9-4.4,4c0.1,1.6,0.6,4.3,3.7,4.5c7.3,0.4,14.9,0.4,22.6,0c1-0.1,1.8-0.4,2.4-1.1
		c0.8-0.9,1.1-2.2,1-3.5C109.5,399.6,108.2,398.4,105.5,398.3"/>
</g>
</svg>
