<?xml version="1.0" encoding="utf-8"?>
<!-- Generator: Adobe Illustrator 28.1.0, SVG Export Plug-In . SVG Version: 6.00 Build 0)  -->
<svg version="1.1" id="Layer_1" xmlns="http://www.w3.org/2000/svg" xmlns:xlink="http://www.w3.org/1999/xlink" x="0px" y="0px"
	 viewBox="0 0 241.1 228.7" style="enable-background:new 0 0 241.1 228.7;" xml:space="preserve">
<style type="text/css">
	.st0{fill:#FFFFFF;}
</style>
<g>
	<polygon class="st0" points="9.4,0 -5.7,15.1 -5.7,26.8 21.1,0 	"/>
	<polygon class="st0" points="43.3,228.7 241.9,30.7 241.9,19.1 31.3,228.7 	"/>
	<polygon class="st0" points="40.9,0 -5.7,46.5 -5.7,58.2 52.6,0 	"/>
	<polygon class="st0" points="74.6,228.7 241.9,61.9 241.9,50.2 62.9,228.7 	"/>
	<polygon class="st0" points="200.1,228.7 241.9,187 241.9,175.5 188.5,228.7 	"/>
	<polygon class="st0" points="231.7,228.7 241.9,218.5 241.9,206.7 219.8,228.7 	"/>
	<polygon class="st0" points="168.8,228.7 241.9,155.8 241.9,144.1 157.1,228.7 	"/>
	<polygon class="st0" points="137.4,228.7 241.9,124.6 241.9,112.9 125.5,228.7 	"/>
	<polygon class="st0" points="105.9,228.7 241.9,93.1 241.9,81.4 94.2,228.7 	"/>
	<polygon class="st0" points="72.3,0 -5.7,77.8 -5.7,89.6 84.1,0 	"/>
	<polygon class="st0" points="166.8,0 -5.7,171.7 -5.7,183.6 178.4,0 	"/>
	<polygon class="st0" points="135.4,0 -5.7,140.5 -5.7,152 146.8,0 	"/>
	<polygon class="st0" points="229.5,0 0,228.7 11.7,228.7 241.1,0 	"/>
	<polygon class="st0" points="198.1,0 -5.7,203.2 -5.7,214.9 209.9,0 	"/>
	<polygon class="st0" points="103.7,0 -5.7,109.1 -5.7,120.8 115.5,0 	"/>
</g>
</svg>
