<?xml version="1.0" encoding="utf-8"?>
<!-- Generator: Adobe Illustrator 28.1.0, SVG Export Plug-In . SVG Version: 6.00 Build 0)  -->
<svg version="1.1" id="Layer_1" xmlns="http://www.w3.org/2000/svg" xmlns:xlink="http://www.w3.org/1999/xlink" x="0px" y="0px"
	 viewBox="0 0 512 512" style="enable-background:new 0 0 512 512;" xml:space="preserve">
<style type="text/css">
	.st0{fill:#58595B;}
	.st1{fill:#0C9ED9;}
	.st2{fill:none;stroke:#F7F8F9;stroke-width:0.5;stroke-miterlimit:10;}
</style>
<path class="st0" d="M500.2,136.9c1.9-2.8,3.7-5.6,5.2-8.7c1-2.2,1.9-4.5,2.6-6.9v-8.9c-1.2-2.7-2.5-4.9-3.9-6.9
	c-4.8-7-10.7-10-20.3-10.2c-1.4,0-2.8,0-4.3,0c-10.7,0.6-20.4,4.6-29.3,10.4c-1.2,0.8-2.3,1.3-3.5,1.9c-3.9,1.7-8,2.1-12.4,1.3
	c-0.7-0.1-1.3-0.2-2-0.3c-35.9-9.5-71.9-9.6-107.9-0.2c-3.3,0.9-6.3,1.1-9.2,0.8c1.2-1.8,2.4-3.6,3.4-5.5c2.4-4.1,4.3-8.5,5.7-13.3
	v-11c-0.7-1.6-1.4-3-2.2-4.4c-0.7-1.2-1.4-2.3-2.1-3.4c-6.8-10.4-15.3-14-30.8-13.2c-1.1,0.1-2.2,0.2-3.3,0.3
	c-1.7,0.2-3.4,0.4-5.1,0.8c-1.2,0.2-2.4,0.4-3.6,0.7c-8.5,2.2-16.4,6-23.9,10.9c-6.7,4.4-13.5,5.6-21.3,3.7c-0.1,0-0.2,0-0.2-0.1
	c-0.2,0-0.3-0.1-0.5-0.1c-29.5-7.8-59.1-10.4-88.7-7.8c-6.2,0.5-12.4,1.2-18.6,2.2c-1.7,0.3-3.3,0.6-5,0.9
	c-6.8,1.2-13.5,2.7-20.3,4.4c-2.2,0.6-4.3,0.9-6.3,1.1c-6.2,0.4-11.8-1-17.5-4.7c-0.5-0.3-1-0.6-1.5-0.9c-2-1.3-4-2.5-6.1-3.6
	c-10.6-5.5-22-8.6-34.5-8c-3.6,0.2-6.8,0.9-9.8,1.9c-5.4,1.8-9.9,4.7-13.1,8.7c-5.6,7-7.1,16.9-2.8,27.5c1.2,3,2.8,5.8,4.5,8.6
	c2,3.1,4.2,6,6.5,8.8c1.2,1.5,2.3,2.9,3.5,4.3c0.5,0.7,1.1,1.3,1.5,2c4.5,6.2,6.2,12.5,4.7,20.4c-1,5.6-1.9,11.3-2.9,16.9
	c-1,5.9-2.1,11.8-3,17.8c-0.4,2.3-0.7,4.7-1.1,7c0,0-0.3,2-0.9,5.6c-0.2,1.3-0.4,2.7-0.6,4.4c-0.1,0.9-0.3,1.8-0.4,2.8
	c-0.1,0.8-0.2,1.6-0.4,2.5c-0.1,0.6-0.1,1-0.1,1.5c0,0.5-0.1,1.1-0.1,1.6c-0.2,1.6-0.4,3.5-0.6,5.2c-0.4,3.9-0.8,8-1.1,12.5
	c-0.2,2.5-0.3,5.3-0.5,7.9c-0.4,6.5-0.6,13.2-0.5,20c0,1.6,0,3.1,0,4.7c0,1.6,0,3.1,0,4.7h-0.1c0,12.4,0.5,24.8,1.4,37.3
	c0.2,2.4,0.4,4.8,0.6,7.3c0.2,2.3,0.4,4.7,0.6,7c0.5,5.4,1.2,10.8,1.9,16.2c0.6,4.2,1.2,8.4,1.9,12.6c1.5,9,3.1,18,4.7,27
	c0.6,3.2,1.1,6.4,1.7,9.6c0.6,3.3,0.5,6.5-0.1,9.4c-0.7,3.3-2.2,6.4-4.9,9l-0.1,0.1l-0.1,0.1c-4,4.1-8.5,9.4-12.2,15.3
	c-3.1,4.9-5.4,10.3-6.3,15.6c-0.8,4.9-0.3,9.8,2.2,14.4c0.1,0.2,0.3,0.4,0.4,0.6c1.1,1.9,2.3,3.7,3.6,5.2c0.4,0.5,0.9,0.9,1.3,1.4
	c6.9,7.4,16,9.9,27.6,9.3c9.9-0.5,19.1-3.4,27.7-7.9c0.1-0.1,0.3-0.2,0.4-0.2c2.7-1.4,5.3-3,7.9-4.6c5.4-3.5,10.9-4.9,16.8-4.3
	c1.7,0.2,3.4,0.4,5.1,0.9c9,2.4,18.1,4.3,27.1,5.7c35.2,5.6,70.4,3.8,105.5-5.5c0.3-0.1,0.6-0.1,1-0.2c0.4-0.1,0.9-0.2,1.3-0.3
	c1.9-0.4,3.8-0.6,5.7-0.7c5.6-0.1,10.7,1.4,15.9,4.8c7.3,4.8,15.1,8.4,23.3,10.5c6,1.5,12.3,2.2,18.8,1.9c13-0.6,22.5-7.1,26.3-16.5
	c2.6-6.2,2.6-13.7-0.6-21.6c-1.8-4.4-4.4-8.6-7.3-12.6c0,0,0,0,0,0c-2.2-3.1-4.6-6-7-8.8c2.4,2.8,4.8,5.8,7,8.8v0
	c1.3-0.2,2.7-0.2,4.1-0.1c0.3,0,0.6,0,0.8,0.1c1.3,0.1,2.7,0.3,4.1,0.7c12.5,3.3,25,5.4,37.5,6.4c23.5,1.9,46.9-0.1,70.4-6.2
	c7.1-1.9,13.2-1,19.4,3c1.6,1,3.2,2,4.9,2.9c9,4.9,18.7,7.7,29.4,7.2c17.5-0.8,27.5-14.9,20.9-31c-0.6-1.5-1.3-2.9-2.1-4.3
	c-1.4-2.5-3-4.8-4.7-7.1c-1.6-2.1-3.3-4.2-5-6.2c-4.6-5.5-6.4-11.1-5.1-18.2c0.9-5.1,1.8-10.1,2.7-15.2c1-6.2,2-12.5,3-18.8
	c0,0,0.2-0.9,0.4-2.5c0.2-1.4,0.5-3.3,0.8-5.7c0.2-1.4,0.4-2.8,0.6-4.2c0.1-0.9,0.2-1.8,0.2-2.5c0.6-5,1.2-11,1.6-17.5
	c0.4-6.3,0.7-13,0.6-19.6c0-2.5,0-5.1,0-7.7h0.1c0-4.2-0.2-8.5-0.3-12.7c-0.3-9.7-0.8-19.4-1.7-29.2c-1.3-13.4-3.6-26.8-6-40.1
	c-0.8-4.4-1.5-8.7-2.3-13.1c-1-5.8,0-10.9,4.1-15C495.5,143.1,498,140.1,500.2,136.9 M457.2,115.9c7.9-5.2,16.6-8.6,26.4-8.3
	c10.4,0.4,14.8,6.7,10.3,16c-2.2,4.5-5.4,8.7-8.9,12.5c-7.8,8.4-10.7,17.9-8,29.1c0.8,3.4,1.5,6.8,2.4,10.5H307
	c-1-6.2-2.1-12.5-3.2-18.7c-1-5.9-2.1-11.9-3.1-17.8c-1.2-7.1,0-13.5,5-18.5c0.3-0.3,0.5-0.5,0.8-0.8c0,0,0.1-0.1,0.1-0.1
	c7.1,2.4,14.5,2.3,22.5,0.2c33.1-8.6,66.3-8.4,99.4,0.4C438.7,123.1,448.2,121.8,457.2,115.9 M293.9,323.7c-0.2,1.8-0.4,3.6-0.6,5.2
	c-0.3,2.5-0.6,4.9-0.9,7.4v0c-0.1,1-0.2,1.9-0.4,2.9h-15.1h0h-12h0H84.8H36.8c-0.1-1-0.3-1.9-0.4-2.9c-0.6-4.2-1.2-8.4-1.7-12.6
	c-1.3-10.1-2.2-20.3-2.9-30.4c-0.8-12.4-1.2-24.9-1.2-37.3h0c0-3.2,0-6.3,0-9.5c0.1-1.1,0.7-13.3,1.6-27.8
	c0.7-10.1,1.6-21.3,2.5-30.5c0.2-1.8,0.4-3.6,0.6-5.2c0.3-2.5,0.6-4.9,0.9-7.4c0.1-1,0.2-1.9,0.4-2.9h36.1h192.1h0h12.1h15
	c0.2,1,0.3,1.9,0.4,2.9c0.6,4.2,1.2,8.4,1.7,12.6c1.9,15.2,3,30.3,3.6,45.4c0.3,7.4,0.5,14.9,0.5,22.3h0c0,3.2,0,6.3,0,9.5
	c0,0.6-0.2,4.8-0.6,10.9C296.8,288.6,295.5,308.8,293.9,323.7L293.9,323.7z M21.7,93.1C16.5,82.6,20.9,75,31.9,73.7
	c0.6-0.1,1.3-0.1,2-0.2c5.5-0.3,10.8,0.4,15.8,1.9c5.6,1.6,10.9,4.3,15.9,7.6c12.2,8.1,24.6,9.4,38.7,5.7c8.5-2.2,17-4,25.5-5.2
	c32.2-4.8,64.5-2.8,96.6,5.7c1.4,0.4,2.8,0.7,4.2,0.9c11.1,2,21.4,0,31.2-6.4c9.8-6.4,20.4-10.6,32.5-10.2
	c12.9,0.4,18.2,8.2,12.6,19.6c-1.7,3.4-3.8,6.8-6.2,9.8c0,0,0,0,0,0c-1.5,1.9-3.1,3.7-4.7,5.5c-1.2,1.3-2.3,2.6-3.3,4c0,0,0,0,0,0
	c-7.1,9.3-9.4,19.8-6.5,31.8c1,4.2,1.9,8.4,2.9,13h-9.6h0h-12.5h0H70.1H39.6c1.1-5.3,2.2-10.1,3.2-15c1.7-7.9,0.9-15-2-21.6
	c-1.7-3.9-4.1-7.5-7.2-11.1c0,0,0,0,0,0C29.2,104.4,24.7,99,21.7,93.1 M294.8,438.4c-11.7,0.5-22.3-3.2-31.7-9.5
	c-10.5-7-21.3-8.9-33-7c-1.9,0.3-3.7,0.7-5.7,1.2c-31.5,8.2-63.1,9.9-94.6,5.2c-9.2-1.4-18.4-3.3-27.5-5.7
	c-12.8-3.4-24.4-1.8-35.4,5.5c-5.6,3.7-11.4,6.6-17.6,8.3c-4.7,1.4-9.7,2.1-14.9,1.9c-0.9,0-1.7-0.1-2.5-0.2
	c-11-1.3-15.3-8.8-10.1-19.4c2.7-5.6,6.6-10.7,10.9-15.3c0.3-0.3,0.6-0.6,0.8-0.9c3.1-3.5,5.6-7.2,7.2-11.1
	c3.2-7.2,3.9-15.1,1.7-23.8c-1-4.2-1.9-8.4-2.9-13h43h184.8h0h12.3h9.5c-1.1,5.3-2.2,10.1-3.2,15c-2.4,11.2,0.3,20.9,6.8,29.7v0
	c0.8,1,1.5,2,2.4,2.9c1.9,2.2,3.7,4.4,5.5,6.6v0h0c2.4,3.1,4.7,6.4,6.4,9.8C312.6,430,307.3,437.9,294.8,438.4 M426.7,392.1
	c-33.1,8.6-66.3,8.4-99.4-0.4c-7.5-2-14.4-1.9-21.1,0.6c0.3,0.4,0.7,0.8,1,1.3c-0.4-0.4-0.7-0.8-1-1.3c-2.1-2.8-3.6-5.6-4.5-8.5
	c-1.2-3.8-1.6-7.9-0.7-12.6c0.9-5.1,1.7-10.1,2.6-15.2c1.1-6.5,2.3-13,3.3-19.5v0c0.4-2.3,0.7-4.7,1.1-7c0,0,0.4-2,0.9-5.6
	c0,0,0,0,0,0c0.2-1.3,0.4-2.7,0.6-4.4c0.1-0.8,0.2-1.7,0.4-2.5c0.1-0.9,0.3-1.8,0.4-2.7c0.1-0.6,0.1-1.1,0.1-1.6
	c0-0.5,0.1-1.1,0.1-1.5c0.2-1.5,0.3-3.1,0.5-4.7c0.2-2.3,0.5-4.6,0.7-7.1h134c3.1,0,5.6-2.2,6.1-5.1c2.3-13.6,3.3-27.4,3.1-41.2
	c-0.1-11.7-1.2-23.5-3.1-35.1c-0.5-3-3-5.2-6.1-5.2H311.5c0.2,2,0.4,4,0.5,6c0.1,2,0.2,4,0.3,6h128.3c1.4,9.4,2.1,18.9,2.2,28.4
	c0.2,11.4-0.6,22.8-2.2,34.2H312.5c0-0.6,0.1-1.3,0.1-1.9c0.4-6.5,0.6-13.2,0.5-20c0-1.6,0-3.1,0-4.7c0-1.6,0-3.1,0-4.7h0.1
	c0-10.4-0.4-20.8-1-31.3c-0.1-2-0.2-4-0.3-6c-0.1-2-0.3-4-0.5-6c0-0.2,0-0.5-0.1-0.7c-0.2-2.5-0.4-5.1-0.6-7.6
	c-0.5-5.4-1.2-10.8-1.9-16.2h172.8c3.4,22.6,5.1,45.2,5.1,67.7h0c0,2.6,0,5.2,0,7.7c-0.1,1.6-1.7,33.9-3.9,51.6
	c-0.3,2.8-0.7,5.6-1,8.4H308.8c0,0,0,0,0,0c-0.5,3.6-0.9,5.6-0.9,5.6c-0.4,2.3-0.7,4.7-1.1,7h172.5c-0.9,4.3-1.8,8.3-2.6,12.2
	c-2.2,10.1,0.7,18.8,7.5,26.6c3.6,4.2,7.3,8.5,9.7,13.4c4.5,9.1,0.2,15.4-9.9,15.9c-9.5,0.4-18.1-2.6-25.8-7.7
	C448.3,390.1,438.2,389.1,426.7,392.1"/>
<path class="st1" d="M256.6,234.1c-0.6-9.2-1.7-18.4-3.2-27.5c-0.5-3-3.1-5.2-6.2-5.2h-175c-3.1,0-5.7,2.2-6.2,5.2
	c-2.4,14.1-3.7,28.5-3.9,42.8c-0.3,17.4,1,35,3.9,52.2c0.5,3,3.1,5.2,6.2,5.2h175c3.1,0,5.7-2.2,6.2-5.2c1.6-9.8,2.7-19.6,3.3-29.5
	c0,0,0,0,0,0c0.5-7.2,0.7-14.5,0.6-21.7C257.2,244.9,257,239.5,256.6,234.1z M242.1,294.6H77.3c-2.2-14.9-3.2-30-2.9-45.1
	c0.2-12,1.2-24.1,2.9-36h164.8c1.8,12.2,2.8,24.6,3,36.9C245.2,265.2,244.2,280,242.1,294.6"/>
<path class="st2" d="M256.6,234.1c-0.6-9.2-1.7-18.4-3.2-27.5c-0.5-3-3.1-5.2-6.2-5.2h-175c-3.1,0-5.7,2.2-6.2,5.2
	c-2.4,14.1-3.7,28.5-3.9,42.8c-0.3,17.4,1,35,3.9,52.2c0.5,3,3.1,5.2,6.2,5.2h175c3.1,0,5.7-2.2,6.2-5.2c1.6-9.8,2.7-19.6,3.3-29.5
	c0,0,0,0,0,0c0.5-7.2,0.7-14.5,0.6-21.7C257.2,244.9,257,239.5,256.6,234.1z M242.1,294.6H77.3c-2.2-14.9-3.2-30-2.9-45.1
	c0.2-12,1.2-24.1,2.9-36h164.8c1.8,12.2,2.8,24.6,3,36.9C245.2,265.2,244.2,280,242.1,294.6z"/>
</svg>
