<?xml version="1.0" encoding="UTF-8"?>
<svg xmlns="http://www.w3.org/2000/svg" viewBox="0 0 1835.52 766.02">
  <defs>
    <style>
      .cls-1 {
        fill: #231f20;
      }

      .cls-2, .cls-3 {
        fill: #fff;
      }

      .cls-4 {
        fill: #ed1c24;
      }

      .cls-5 {
        mix-blend-mode: multiply;
        opacity: .25;
      }

      .cls-6 {
        isolation: isolate;
      }

      .cls-3 {
        stroke: #eb1f36;
        stroke-miterlimit: 2.61;
      }
    </style>
  </defs>
  <g class="cls-6">
    <g id="Layer_1" data-name="Layer 1">
      <g>
        <path class="cls-4" d="M1224.88,655.6c-83.8,9.89-181.87,16.41-293.26,19.24-389.9,9.93-582.35-38.64-590.77-40.82l-.81-.22c-4.24-1.19-8.22-2.23-12.08-3.25-36.89-9.74-83.44-22.02-109.2-83.4l-.8-2.06L100.55,217.1c-28.04-78.32,7.11-139.4,91.82-155.85,4.17-.88,113.35-23.43,338.39-26.46,151.96-2.05,315.06,5.32,481.63,21.05,411.99,38.91,601.98,120.39,603.77,121.15,44.91,20.13,54.11,67.81,26.02,123.65l-121.38,245-.93,1.55c-27.37,45.71-64.47,59.26-91.68,69.19-6.34,2.3-65.84,23-203.29,39.23h-.01Z"/>
        <g>
          <path class="cls-3" d="M909.03,688.87c-413.66,0-592.13-57.11-599.53-59.54l-.43-.15c-3.84-1.35-7.57-2.6-11.18-3.8-30.24-10.09-61.52-20.53-75.22-71.72l-.24-1.01-61.86-288.16c-10.45-48.66,14.54-86.18,66.84-100.36,8.18-2.35,212.59-59.49,681.62-59.49,428.43,0,677.96,58.75,680.43,59.34,52.92,13.51,78.34,50.98,68.25,100.31l-59.08,289.18-.3.99c-15.09,48.65-52.36,62.45-85.24,74.63-6.65,2.45-167.21,59.8-604.05,59.8Z"/>
          <g>
            <path class="cls-2" d="M909.03,688.87c-413.66,0-592.13-57.11-599.53-59.54l-.43-.15c-3.84-1.35-7.57-2.6-11.18-3.8-30.24-10.09-61.52-20.53-75.22-71.72l-.24-1.01-61.86-288.16c-10.45-48.66,14.54-86.18,66.84-100.36,8.18-2.35,212.59-59.49,681.62-59.49,428.43,0,677.96,58.75,680.43,59.34,52.92,13.51,78.34,50.98,68.25,100.31l-59.08,289.18-.3.99c-15.09,48.65-52.36,62.45-85.24,74.63-6.65,2.45-167.21,59.8-604.05,59.8Z"/>
            <path class="cls-4" d="M909.03,691.37c-414.07,0-592.9-57.23-600.31-59.67l-.46-.16c-3.82-1.35-7.53-2.59-11.11-3.78-30.92-10.32-62.84-20.97-76.9-73.46l-.26-1.08-61.88-288.22c-10.76-50.11,14.9-88.73,68.63-103.3,8.43-2.42,212.71-59.58,682.28-59.58,428.43,0,678.54,58.82,681.01,59.41,54.3,13.86,80.5,52.45,70.12,103.24l-59.11,289.3-.34,1.1c-15.46,49.83-53.34,63.86-86.76,76.24-6.64,2.45-167.48,59.95-604.92,59.95ZM909.03,107.13c-468.87,0-672.49,56.97-680.93,59.39-50.9,13.8-75.22,50.22-65.09,97.43l61.86,288.17.23.95c13.34,49.83,43.96,60.05,73.58,69.93,3.66,1.22,7.39,2.46,11.23,3.82l.4.14c7.35,2.42,185.44,59.41,598.72,59.41,436.56,0,596.59-57.21,603.19-59.64,32.34-11.98,69-25.55,83.72-73.02l.27-.87,59.06-289.06c9.78-47.87-15.05-84.28-66.42-97.39-2.44-.58-251.97-59.26-679.81-59.26Z"/>
          </g>
        </g>
        <g class="cls-5">
          <path class="cls-1" d="M716.71,356.4c16.21-38.72,29.09-64.38,38.74-77.23,7.52-10.18,15.77-15.09,24.75-14.78l165.01,5.79c4.98.17,9.86.98,14.63,2.42,4.75,1.44,9.61,3.88,14.59,7.33,4.96,3.45,8.92,7.36,11.89,11.74,7.84,11.32,8.74,24.83,2.71,40.61-1.44,3.77-3.46,7.91-6.06,12.43-5.5,9.82-13.96,19.33-25.41,28.54-11.53,9.28-28.67,19.82-51.55,31.7-3.53,2.09-5.5,3.65-5.9,4.69-.61,1.56-.67,3.26-.17,5.08l13.94,21c2.09,3.1,4.12,7.5,6.11,13.19,2.87,7.24,5.19,15.12,6.96,23.66,1.38,5.69,2.01,11,1.9,15.94.03,22.37-1.8,38.44-5.52,48.21-3.13,8.21-7.11,12.41-11.93,12.59l-85.19,3.2-4.73-1.03c-1.47-1.01-2.01-3.41-1.61-7.18.39-3.77,1.82-15.87,4.27-36.28l.34-4.42c-.08-20.28-.67-33.74-1.78-40.39-1.11-6.64-3.22-11.21-6.3-13.71-3.09-2.5-6.54-3.73-10.35-3.69-4.13.04-8.42,1.03-12.84,2.95-4.44,1.93-8.61,4.94-12.5,9.02-3.9,4.1-7.23,9.54-9.97,16.34-1.32,3.27-2.47,6.88-3.41,10.81-.96,3.95-1.88,7.42-2.77,10.42l-3.55,15.96-.68,2.87c-2.57,19.11-4.79,31.04-6.68,35.74-1.45,3.6-3.33,5.45-5.62,5.53l-105.56,3.97c-3.46.13-5.08-1.7-4.85-5.5.22-3.8,2.89-11.81,8-24.01l.71-1.7,19.14-50.58,20.62-52.85,10.69-24.31c3.89-9.29,7.43-17.34,10.61-24.14,3.17-6.78,6.29-13.43,9.34-19.92ZM811.72,359.91l-8.2,17.87c-2.59,6.38,1.19,9.59,11.32,9.64,3.47.01,6.83-.5,10.08-1.55,6.07-1.82,11.45-3.91,16.13-6.26,14.4-6.47,25.55-12.93,33.5-19.39,7.91-6.42,13.13-12.85,15.69-19.31,1.22-3.09,1.74-6.33,1.55-9.71-.58-5.46-2.61-9.78-6.08-12.97-3.48-3.19-7.81-4.85-12.99-4.98-12.26-.29-22.03,1.39-29.27,5.02-7.28,3.66-13.66,10.31-19.15,19.97l-12.57,21.66Z"/>
          <path class="cls-1" d="M1055.8,295.97c5.51-9.48,9.82-15.39,12.94-17.76,3.11-2.35,8.63-3.4,16.56-3.12l65.47,2.3c3.15.11,3.82,2.66,2.01,7.66-1.29,3.57-4.84,9.32-10.65,17.25-5.84,7.96-11.27,16.26-16.3,24.91-7.44,13.03-14.11,27.61-19.98,43.74-3.13,8.59-6.27,17-9.41,25.26-3.16,8.28-6.13,16.26-8.93,23.94-2.27,6.21-4.15,11.38-5.65,15.49-1.5,4.12-3.39,10.8-5.66,20.04l-7.1,35.37-1.37,6.05-2.2,10.59-2.88,17.05-1.51,9.87-.55,2.66c-.74,4.31-2.36,6.51-4.88,6.61l-88.52,3.33c-1.76.07-2.86-1.44-3.3-4.53-.44-3.09.04-8.78,1.42-17.1l2.36-9.74,10.4-34.58,2.19-6.96c5.42-14.41,11.65-31.52,18.66-51.29,6.97-19.66,10.49-29.58,10.59-29.84l6.68-15.48,10.46-24.4c3.56-9.47,7.02-17.54,10.38-24.22,4.09-7.14,6.79-12.06,8.09-14.77l10.68-18.34Z"/>
          <path class="cls-1" d="M1323.84,448.4l5.66-7.38c2.74,2.52,4.39,5.98,4.96,10.38.57,4.4-.18,9.75-2.26,16.05-1.15,3.51-2.78,7.38-4.89,11.61-7.35,15.81-18.79,29.24-34.41,40.32-15.77,11.19-34.72,18.79-56.93,22.76-2.96.59-6.91.99-11.88,1.19-4.98.2-9.19.48-12.6.86-23.01.9-40.42-1.53-52.05-7.34-11.7-5.84-20.82-16.06-27.32-30.65l-3.67-9.89c-5.45-16.89-5.36-37.34.26-61.26,2.19-9.09,3.87-15.47,5.06-19.14,1.18-3.67,2.17-6.61,2.96-8.81,10.73-29.94,26.47-55.08,47.09-75.43,19.24-19.15,38.74-33.09,58.48-41.91,19.5-8.71,41.05-12.6,64.57-11.74,4.33.16,8.47.31,12.42.45s7.81.63,11.63,1.45c11.62,2.47,20.16,5.57,25.68,9.28,5.5,3.71,9.09,8.64,10.81,14.82,1.38,5.03,1.11,10.47-.83,16.33-2.54,7.68-7.32,14.64-14.35,20.89-7.07,6.29-15.73,10.86-26.01,13.7l-6.56,1.29c-5.04.62-8.88.92-11.53.88-3.62-.05-5.55-1-5.77-2.87-.23-1.86.84-6.26,3.18-13.17,1.17-3.45.49-6.3-2.03-8.56-2.52-2.25-6.46-3.44-11.8-3.56-4.15-.09-8.13.41-11.95,1.49-9.4,2.14-18.71,7.7-27.94,16.71-9.29,9.06-18.08,21.86-26.36,38.42-2.66,5.47-4.9,10.83-6.73,16.07-.83,2.39-1.45,4.18-1.87,5.37-4.16,11.98-6.06,22.41-5.7,31.28.37,8.88,2.32,16.66,5.87,23.32,6.37,10.92,15.95,17.55,28.67,19.91,5.36,1.08,10.16,1.56,14.41,1.46,22.79-.51,44.03-12.12,63.74-34.61Z"/>
          <path class="cls-1" d="M1559.06,468.17c-6.4,21.47-12.57,37.25-18.49,47.29-4.18,6.95-7.54,10.48-10.09,10.58l-64.47,2.42c-2.66.1-3.46-1.56-2.41-4.96.91-2.95,3.38-7.41,7.41-13.37,2.72-3.89,4.87-7.14,6.44-9.75,1.56-2.61,3.41-5.95,5.53-10.02l3.07-5.75,7.47-14.81c1.47-2.69,2.78-5.2,3.93-7.54,1.15-2.34,2.16-4.95,3.05-7.84,1.72-4.21,1.55-7.69-.51-10.42-2.07-2.73-5.7-4.07-10.91-4.02-2.4.03-5.41.45-9.03,1.26-3.64.82-7.77,1.98-12.4,3.48-4.65,1.51-8.34,2.73-11.05,3.66-9.44,3.94-16.42,7.75-20.93,11.42-4.52,3.69-7.72,8.49-9.59,14.4s-2.32,14.09-1.54,25.17l1.24,6.77c1.6,5.62,2.61,9.9,3.03,12.83.42,2.94.3,5.09-.35,6.48-.94,2.99-2.76,4.53-5.49,4.63l-69.93,2.63c-1.66.06-2.96-.99-3.89-3.17-.94-2.17-1.57-6.39-1.88-12.65l.96-18.13c.76-8.82,3.15-19.41,7.17-31.74,1.81-5.57,4.28-12.05,7.39-19.46,3.11-7.39,6.32-14.58,9.65-21.6,3.32-6.99,6.07-12.42,8.26-16.31,2.18-3.87,3.8-6.72,4.86-8.54,6.6-11.11,12.55-20.42,17.86-27.96,5.28-7.5,10.63-14.35,16.05-20.56,14.36-16.52,28.88-30.31,43.56-41.43,6.2-4.89,12.78-9.3,19.75-13.25,22.51-13.4,36.72-19.91,42.86-19.67,5.48.21,13.55,5.36,24.19,15.41l10.41,12.23c10.84,15.7,16.65,35.85,17.48,60.55.83,24.74-3.73,53.79-13.73,87.35l-4.91,14.39ZM1458.25,395.51c.45.67,4.22,1.18,11.27,1.53,7.02.35,14.33.53,21.94.54h2.28c12.29.03,19.52-3.57,21.73-10.77.87-2.83,1.12-6.76.74-11.79l-.98-12.45-.14-1.64-2.54-10.5c-1.02-5.03-3.56-7.59-7.63-7.66-2.36-.04-5.12,1.16-8.27,3.62-3.16,2.47-7.36,6.51-12.61,12.15l-12.43,13.42-7.73,10.9c-3.09,4.2-4.99,7.42-5.69,9.64-.42,1.33-.4,2.33.05,3Z"/>
        </g>
        <g class="cls-5">
          <path class="cls-1" d="M421.61,590.72c-3.89,0-7.86-.22-11.82-.67-29.82-4.22-50.48-16.45-61.53-36.37-10.75-19.37-14.5-42.98-11.13-70.15.37-3.26.82-6.64,1.36-9.99,3.72-23.35,11.37-48.3,22.72-74.15,11.32-25.79,25.27-49.92,41.46-71.73,16.29-21.94,32.59-37.93,48.45-47.53,16.34-9.3,30.83-13.99,43.14-13.99,5.23,0,12.46,1.73,22.11,5.3,11.26,4.16,17.85,18.63,20.17,44.21.14,1.73.11,3.14-.08,4.37-.36,2.29-1.36,4.24-2.96,5.81-1.63,1.6-3.77,2.51-6.37,2.72h-.32s-5.97.01-5.97.01c-16.21.97-31.15,8.92-44.43,23.63-13.7,15.18-25.65,33.82-35.51,55.39-9.93,21.72-17.79,43.13-23.36,63.63-3.37,12.48-5.81,23.41-7.26,32.48-.9,5.63-1.4,10.67-1.5,14.99-.42,20.9,2.73,27.92,4.65,30.24.71.86,1.43,1.29,2.39,1.42l.19.03.19.04c.3.07.59.1.89.1,4.69,0,13.26-3.35,27.47-19.33,9.12-10.2,20.13-25.82,32.72-46.41,12.62-20.65,25-44,36.78-69.42,11.74-25.33,20.98-50.5,27.48-74.82,2.14-7.69,3.79-15.09,4.89-22.02,2.36-14.81,2.28-29.79-.24-44.52-2.28-13.28-10.72-22.28-25.8-27.51-6.61-1.72-13.36-2.6-20.08-2.6-16.25,0-35.19,6.31-56.31,18.75-21.29,12.54-42.66,32.63-63.53,59.73-20.9,27.13-36.86,56.51-47.44,87.32-3.7,10.84-6.4,21.46-8.01,31.57-2.91,18.26-2.43,35.68,1.42,51.78.34,1.2.87,2.31,1.54,3.11l.19.23.17.25c1.15,1.75,1.87,3.35,2.19,4.89l.18.88-.2,1.27c-.29,1.81-1.37,3.25-3.31,4.4-.93.56-2.66,1.32-7.73,2.17-4.5.74-8.86,1.12-12.98,1.12-17.39,0-31.26-6.82-41.24-20.27-9.75-13.13-13.8-32.16-12.03-56.53.29-4.77.82-9.67,1.59-14.5,3.1-19.41,10.41-41.47,21.73-65.58,11.34-24.13,28.54-48.21,51.13-71.56,22.64-23.4,50.3-42.05,82.19-55.43,25.41-10.55,53.89-15.89,84.67-15.89,8,0,16.33.36,24.75,1.08,33.33,4.01,58.05,16.61,73.59,37.46,15.35,20.59,23.41,46.2,23.96,76.11.21,13.62-.83,27.71-3.09,41.87-2.6,16.28-8.16,36.74-16.55,60.81-8.43,24.19-22.48,50.1-41.76,76.99-19.35,26.99-41.7,48.63-66.43,64.33-21.48,13.57-44.15,20.44-67.39,20.44Z"/>
        </g>
        <g>
          <path class="cls-4" d="M712.33,345.54c21.55-36.12,37.97-60.05,49.39-72.04,8.92-9.5,17.85-14.08,26.78-13.79l164.21,5.4c4.96.16,9.73.92,14.29,2.25,4.55,1.34,9.07,3.62,13.57,6.84,4.48,3.22,7.9,6.87,10.27,10.95,6.28,10.56,5.32,23.16-2.89,37.88-1.96,3.51-4.55,7.38-7.77,11.59-6.86,9.16-16.62,18.03-29.34,26.62-12.81,8.65-31.4,18.49-55.92,29.57-3.81,1.94-6,3.4-6.55,4.37-.83,1.46-1.12,3.04-.87,4.74l11.04,19.59c1.66,2.89,3.09,7,4.29,12.3,1.87,6.75,3.1,14.1,3.7,22.07.59,5.31.49,10.26-.3,14.87-3.05,20.86-7.1,35.86-12.17,44.97-4.26,7.66-8.82,11.58-13.66,11.75l-85.63,2.99-4.59-.96c-1.33-.95-1.54-3.18-.62-6.7.91-3.51,4.01-14.8,9.27-33.84l.95-4.12c2.71-18.92,3.98-31.47,3.79-37.67-.2-6.2-1.67-10.46-4.4-12.79-2.75-2.33-6.03-3.48-9.84-3.44-4.14.04-8.56.96-13.25,2.75-4.71,1.8-9.29,4.6-13.74,8.41-4.46,3.82-8.54,8.9-12.23,15.24-1.77,3.05-3.41,6.41-4.9,10.09-1.5,3.68-2.9,6.92-4.2,9.72l-5.75,14.89-1.07,2.68c-5.2,17.83-9.07,28.95-11.61,33.33-1.95,3.36-4.08,5.08-6.38,5.16l-106.11,3.7c-3.48.12-4.85-1.59-4.1-5.13.75-3.54,4.52-11.01,11.31-22.4l.95-1.59,26.11-47.18,27.9-49.29,14.04-22.67c5.17-8.67,9.82-16.17,13.94-22.52,4.1-6.33,8.14-12.52,12.09-18.58ZM806.85,348.81l-10.66,16.67c-3.47,5.95-.13,8.95,9.99,8.99,3.46.01,6.89-.47,10.29-1.44,6.32-1.7,11.98-3.65,17-5.83,15.29-6.04,27.33-12.06,36.17-18.08,8.79-5.99,14.9-11.99,18.35-18.02,1.65-2.89,2.61-5.9,2.89-9.05.17-5.09-1.26-9.12-4.3-12.1-3.04-2.98-7.14-4.53-12.31-4.64-12.22-.27-22.22,1.29-29.97,4.68-7.78,3.41-15.08,9.62-21.9,18.62l-15.56,20.21Z"/>
          <path class="cls-4" d="M1059.74,289.17c6.82-8.85,11.94-14.36,15.39-16.56,3.43-2.2,9.1-3.17,16.99-2.91l65.16,2.14c3.14.1,3.46,2.48.96,7.15-1.79,3.33-6.13,8.69-13.03,16.09-6.94,7.43-13.51,15.17-19.73,23.24-9.24,12.15-17.91,25.75-26.01,40.8-4.31,8.01-8.61,15.86-12.89,23.56-4.3,7.72-8.37,15.17-12.23,22.33-3.12,5.8-5.72,10.61-7.78,14.45-2.07,3.84-4.88,10.07-8.42,18.69l-11.98,32.99-2.21,5.64-3.66,9.88-5.23,15.9-2.87,9.2-.92,2.48c-1.33,4.02-3.26,6.08-5.79,6.16l-88.98,3.1c-1.77.06-2.66-1.35-2.67-4.23-.01-2.88,1.25-8.19,3.77-15.95l3.7-9.09,15.17-32.25,3.15-6.49c7.41-13.44,15.99-29.4,25.73-47.84,9.68-18.34,14.57-27.59,14.7-27.83l8.82-14.44,13.82-22.76c4.87-8.83,9.44-16.36,13.72-22.59,5.08-6.66,8.45-11.25,10.13-13.78l13.2-17.1Z"/>
          <path class="cls-4" d="M1306.78,431.36l6.68-6.89c2.39,2.35,3.56,5.58,3.53,9.68-.04,4.1-1.52,9.09-4.47,14.97-1.64,3.27-3.8,6.88-6.49,10.83-9.53,14.74-22.82,27.27-39.97,37.61-17.32,10.44-37.31,17.53-60.06,21.23-3.04.55-7.05.92-12.04,1.11-5.01.18-9.25.45-12.72.8-23.14.84-40.21-1.43-51.04-6.84-10.9-5.45-18.61-14.98-23.09-28.59l-2.3-9.22c-3.13-15.75-.22-34.83,8.7-57.14,3.44-8.48,6-14.43,7.7-17.86,1.69-3.43,3.08-6.16,4.17-8.22,14.86-27.93,34.06-51.38,57.48-70.36,21.88-17.86,43.3-30.86,64.26-39.09,20.7-8.12,42.79-11.75,66.18-10.95,4.31.15,8.42.29,12.35.42s7.72.59,11.43,1.36c11.28,2.31,19.4,5.19,24.4,8.66,4.98,3.46,7.9,8.06,8.76,13.83.69,4.7-.34,9.77-3.08,15.23-3.6,7.16-9.33,13.65-17.23,19.49-7.93,5.87-17.23,10.13-27.9,12.78l-6.74,1.21c-5.12.58-9.01.86-11.66.82-3.62-.05-5.42-.93-5.38-2.67.03-1.73,1.7-5.83,5-12.29,1.64-3.22,1.36-5.88-.85-7.98-2.21-2.1-5.98-3.21-11.31-3.32-4.13-.08-8.18.38-12.15,1.39-9.7,2-19.77,7.18-30.25,15.58-10.54,8.45-21.1,20.39-31.66,35.84-3.42,5.1-6.4,10.1-8.94,14.99-1.16,2.23-2.03,3.9-2.61,5.01-5.81,11.17-9.15,20.9-10.01,29.17-.86,8.28.02,15.54,2.65,21.75,4.86,10.19,13.53,16.37,25.92,18.57,5.21,1,9.95,1.46,14.21,1.37,22.86-.48,45.7-11.3,68.51-32.28Z"/>
          <path class="cls-4" d="M1539.27,449.79c-9.36,20.02-17.7,34.74-25.01,44.11-5.13,6.48-8.98,9.78-11.55,9.87l-64.8,2.26c-2.67.09-3.25-1.45-1.73-4.63,1.32-2.75,4.4-6.91,9.25-12.47,3.26-3.62,5.85-6.66,7.78-9.1,1.92-2.43,4.23-5.55,6.91-9.34l3.86-5.36,9.51-13.82c1.84-2.51,3.5-4.85,4.97-7.04,1.47-2.18,2.85-4.62,4.13-7.31,2.3-3.93,2.61-7.17.92-9.72-1.69-2.55-5.14-3.8-10.36-3.75-2.4.02-5.47.42-9.21,1.18-3.75.77-8.05,1.85-12.88,3.25-4.86,1.41-8.71,2.55-11.56,3.41-9.98,3.68-17.49,7.23-22.5,10.65-5.03,3.44-8.89,7.92-11.57,13.43-2.59,5.31-4.26,13.14-5.01,23.48l.3,6.31c.82,5.24,1.24,9.23,1.26,11.97.02,2.74-.4,4.75-1.25,6.04-1.35,2.79-3.39,4.23-6.13,4.32l-70.3,2.45c-1.67.06-2.83-.92-3.46-2.95-.64-2.03-.69-5.96-.14-11.8l3.46-16.91c1.97-8.23,5.83-18.1,11.54-29.6,2.58-5.19,5.94-11.24,10.08-18.15,4.12-6.89,8.33-13.6,12.63-20.14,4.28-6.52,7.78-11.59,10.51-15.21,2.72-3.61,4.73-6.27,6.03-7.97,8.13-10.36,15.37-19.05,21.72-26.08,6.32-6.99,12.61-13.39,18.88-19.18,16.64-15.41,33.06-28.28,49.27-38.65,6.88-4.56,14.06-8.68,21.57-12.36,24.36-12.5,39.47-18.57,45.57-18.35,5.45.2,12.82,5,22.07,14.37l8.73,11.41c8.68,14.64,11.71,33.44,9.13,56.48-2.58,23.08-11.14,50.17-25.77,81.47l-6.9,13.43ZM1448.47,382.02c.36.62,4.05,1.1,11.06,1.42,6.97.32,14.26.49,21.87.51h2.27c12.29.03,20.01-3.33,23.22-10.05,1.26-2.64,2.05-6.31,2.36-10.99l.74-11.61.09-1.53-1.1-9.8c-.33-4.69-2.52-7.08-6.58-7.15-2.36-.04-5.28,1.09-8.77,3.38-3.5,2.3-8.26,6.08-14.28,11.33l-14.28,12.52-9.23,10.17c-3.67,3.92-6.01,6.92-7.02,8.99-.6,1.24-.73,2.18-.36,2.8Z"/>
        </g>
        <path class="cls-4" d="M384.93,564.11c-3.89,0-7.83-.21-11.73-.62-29.24-3.93-48.21-15.34-56.51-33.93-8.08-18.07-8.57-40.09-1.47-65.43.81-3.04,1.74-6.2,2.73-9.32,6.94-21.78,18.03-45.05,32.94-69.16,14.88-24.06,32.15-46.57,51.35-66.9,19.31-20.46,37.82-35.38,55.01-44.34,17.62-8.67,32.76-13.05,45.07-13.05,5.23,0,12.22,1.62,21.38,4.95,10.68,3.88,15.29,17.37,14.08,41.24-.1,1.61-.32,2.93-.68,4.08-.68,2.13-1.94,3.96-3.76,5.42-1.85,1.49-4.12,2.34-6.74,2.53h-.32s-5.97.01-5.97.01c-16.34.9-32.38,8.32-47.69,22.04-15.8,14.16-30.31,31.55-43.14,51.67-12.92,20.26-23.73,40.23-32.13,59.35-5.09,11.64-9.04,21.83-11.73,30.29-1.67,5.25-2.87,9.96-3.57,13.98-3.3,19.5-1.12,26.04.48,28.21.59.81,1.25,1.2,2.19,1.33l.19.03.18.04c.29.06.57.1.87.1,4.69,0,13.72-3.13,30.13-18.03,10.53-9.52,23.68-24.08,39.12-43.29,15.47-19.26,31.06-41.05,46.35-64.76,15.23-23.63,27.94-47.11,37.79-69.79,3.2-7.18,5.87-14.07,7.93-20.54,4.4-13.82,6.39-27.79,5.89-41.53-.45-12.39-7.65-20.78-22.01-25.66-6.37-1.61-13-2.42-19.72-2.42-16.25,0-36.06,5.88-58.89,17.49-23.01,11.69-47.16,30.44-71.77,55.71-24.64,25.31-44.65,52.71-59.48,81.45-5.2,10.11-9.36,20.02-12.36,29.45-5.43,17.03-7.35,33.28-5.71,48.3.17,1.11.55,2.15,1.11,2.9l.16.22.13.23c.91,1.63,1.41,3.12,1.52,4.56l.06.82-.38,1.19c-.54,1.69-1.82,3.03-3.91,4.11-1.01.52-2.84,1.23-8.03,2.02-4.6.69-9.02,1.05-13.14,1.05-17.39,0-30.32-6.36-38.44-18.91-7.94-12.25-9.36-29.99-4.24-52.73.94-4.45,2.15-9.02,3.59-13.52,5.77-18.11,16.12-38.69,30.77-61.17,14.66-22.51,35.18-44.97,61-66.75,25.87-21.83,56.09-39.22,89.83-51.7,26.86-9.84,56.08-14.83,86.86-14.83,8,0,16.28.34,24.6,1.01,32.78,3.74,55.76,15.49,68.43,34.94,12.51,19.21,17.04,43.09,13.47,70.99-1.67,12.71-4.65,25.84-8.86,39.05-4.84,15.18-13.23,34.27-24.93,56.73-11.76,22.56-29.38,46.73-52.37,71.82-23.07,25.17-48.4,45.36-75.3,60.01-23.35,12.65-46.97,19.07-70.2,19.07Z"/>
      </g>
    </g>
  </g>
</svg>