<?xml version="1.0" encoding="UTF-8"?>
<svg id="Layer_1" xmlns="http://www.w3.org/2000/svg" version="1.1" viewBox="0 0 112.28 112.28">
  <!-- Generator: Adobe Illustrator 29.1.0, SVG Export Plug-In . SVG Version: 2.1.0 Build 142)  -->
  <defs>
    <style>
      .st0 {
        fill: #58595b;
      }

      .st0, .st1 {
        stroke: #f7f8f9;
        stroke-miterlimit: 10;
        stroke-width: .75px;
      }

      .st1 {
        fill: #0c9ed9;
      }
    </style>
  </defs>
  <path class="st0" d="M56.16,64.28c-.66.21-1.77-.56-1.7,1.05.11,2.32.03,2.32,1.21,2.32,2.13,0,2.04,0,2.16-2.32.08-1.61-1.05-.82-1.67-1.05M25.84,67.64c.2,0,.41-.03.6,0,.93.15,1.31-.24,1.16-1.16-.02-.13,0-.27,0-.4q0-1.75-1.73-1.76t-1.68,1.7,1.65,1.62M86.36,67.64q1.74,0,1.74-1.55c0-1.77,0-1.78-1.82-1.78-1.81,0-1.58-.26-1.59,1.61-.01,1.72,0,1.72,1.68,1.72M92.65,104.64c1.51,0,2.85.05,4.18,0,3.61-.16,6.8-2.61,7.69-6.04.64-2.48.7-5.09.11-7.55-1.46-6.1-6.61-7.17-11.72-6.38,6.63,4.77,7.39,14.59-.25,19.98M19.72,104.61c-3.57-2.61-5.52-5.8-5.56-10.02-.03-4.24,1.97-7.44,5.5-10.1-1.6,0-2.85-.04-4.1,0-3.33.13-5.78,1.7-7.29,4.67-1.26,2.48-.91,5.16-.78,7.78.14,2.81,1.56,4.91,3.89,6.41,2.5,1.62,5.28,1.32,8.34,1.25M86.37,86.14c-4.61.01-8.4,3.8-8.42,8.4-.02,4.57,3.82,8.42,8.4,8.43,4.65,0,8.47-3.82,8.45-8.46-.02-4.61-3.81-8.38-8.43-8.37M17.47,94.51c-.02,4.61,3.75,8.42,8.35,8.47,4.63.04,8.51-3.8,8.5-8.44,0-4.61-3.8-8.39-8.42-8.39-4.64,0-8.42,3.74-8.43,8.37M64.52,94.6c0-4.76-3.67-8.46-8.4-8.46-4.64,0-8.34,3.73-8.34,8.42,0,4.66,3.73,8.43,8.35,8.42,4.66,0,8.39-3.73,8.39-8.38M62.44,104.55h17.74c-3.55-2.52-5.45-5.75-5.51-9.95-.06-4.23,1.98-7.42,5.33-10.01h-17.54c6.97,4.97,7.47,14.53-.02,19.96M32.1,104.57h17.77c-6.58-4.61-7.87-14.17-.21-20.01h-17.46c3.46,2.63,5.45,5.8,5.42,10.02-.03,4.25-2,7.45-5.52,9.99M47.74,72.69h0c0,2.44.04,4.88-.02,7.33-.02.84.21,1.09,1.06,1.08,4.78-.04,9.56,0,14.35-.02,1.46,0,1.38.31,1.39-1.44.02-4.31.06-8.62,0-12.92-.04-2.94.56-2.32-2.57-2.43-.65-.02-.79.24-.78.83.04,1.7,0,3.39.02,5.09,0,.51-.08.83-.71.82-2.88-.03-5.77-.02-8.65,0-.58,0-.78-.23-.77-.79.02-1.19,0-2.37,0-3.56,0-2.39,0-2.36-2.39-2.39-.79-.01-.97.25-.96.98.04,2.48.01,4.95.01,7.43M17.47,72.64c0,2.51.02,5.01-.01,7.52,0,.67.12.94.88.93,4.95-.04,9.89-.04,14.84.01,1,.01,1.16-.38,1.16-1.24-.03-4.34,0-8.67,0-13.01,0-2.6,0-2.58-2.64-2.57-.64,0-.81.2-.8.81.03,1.73-.02,3.46.01,5.18,0,.56-.12.77-.72.77-2.85-.03-5.69-.02-8.54,0-.56,0-.79-.17-.77-.76.04-1.15,0-2.3,0-3.46,0-2.5,0-2.47-2.45-2.54-.75-.02-1,.15-.98.94.05,2.47.02,4.95.02,7.42M86.45,81.08c2.48,0,4.95-.03,7.43.02.78.02.96-.24.95-.98-.03-4.44-.01-8.89-.01-13.33,0-2.52,0-2.5-2.5-2.5-.72,0-.94.22-.92.93.04,1.66,0,3.33.03,4.99.01.61-.18.84-.81.84-2.81-.02-5.63-.02-8.45,0-.63,0-.82-.21-.8-.82.04-1.12,0-2.24,0-3.36,0-2.61,0-2.58-2.59-2.57-.69,0-.85.25-.85.89.02,5.02.03,10.04,0,15.06,0,.67.21.87.87.86,2.54-.03,5.09-.01,7.63-.01M4.04,91.22c.56-1.98,1.17-3.94,2.51-5.58,1.76-2.14,3.93-3.61,6.64-4.2.77-.17.99-.47.98-1.27-.04-6.1,0-12.21-.04-18.31,0-.75.17-.98.95-.97,7.12.03,14.24.03,21.36,0,.86,0,1.21.13,1.2,1.13-.06,5.97,0,11.94-.05,17.9,0,.88.21,1.2,1.13,1.16,1.52-.07,3.05-.06,4.58,0,.88.04,1.06-.29,1.06-1.1-.02-6.04.02-12.07-.02-18.11,0-.84.25-.99,1.02-.99,7.19.03,14.38.03,21.57,0,.79,0,1.03.19,1.02,1.01-.04,6.04,0,12.07-.04,18.11,0,.83.18,1.12,1.05,1.08,1.56-.07,3.12-.06,4.68,0,.82.03,1.03-.26,1.03-1.04-.02-6,.01-12-.03-18,0-.94.25-1.16,1.17-1.16,7.09.04,14.17.04,21.26,0,.84,0,1.08.22,1.08,1.06-.04,6.07,0,12.14-.04,18.21,0,.77.17,1.12.98,1.29,4.57.93,8.23,4.82,8.95,9.4.03.19.14.37.21.56v6.31c-.36.63-.33,1.36-.54,2.03-1.47,4.6-5.92,8.25-11.59,8.22-14.82-.08-29.64-.03-44.46-.03-11.87,0-23.74.02-35.61,0-5.15-.01-8.79-2.46-11.01-7.08-.48-1.01-.55-2.12-.98-3.13v-6.51Z"/>
  <path class="st0" d="M68.32,29.94c-.07-.11-.13-.23-.22-.33-.81-.82-1.63-1.63-2.45-2.45-.21-.21-.43-.33-.71-.11-1.04.82-2.01.57-3.03-.1-.52-.34-1.17-.54-1.79-.68-.85-.19-1.41-.57-1.53-1.48-.09-.64-.48-.9-1.13-.87-.78.04-1.56.05-2.34,0-.82-.06-1.32.16-1.47,1.05-.08.46-.19.97-.86,1.11-1.23.25-2.37.78-3.46,1.4-.31.18-.57.25-.94.09-1.52-.64-1.53-.62-2.71.57-.38.38-.75.79-1.16,1.15-.48.42-.62.83-.2,1.38.51.67.47,1.33.01,2.04-.48.74-.84,1.56-1,2.42-.17.88-.6,1.39-1.48,1.52-.65.1-.86.46-.81,1.13.07.84.07,1.7,0,2.54-.05.68.12,1.11.84,1.2.85.1,1.26.6,1.44,1.43.22,1.03.68,1.98,1.2,2.89.17.3.38.62.12.94-1.01,1.22-.31,2.04.63,2.82.34.28.66.6.93.93.51.62,1.05.8,1.74.28.55-.41,1.08-.38,1.68,0,.98.61,2.08.99,3.18,1.3.32.09.63.18.66.52.14,1.58,1.17,1.7,2.42,1.56.53-.06,1.09-.06,1.63,0,.62.07.96-.17,1.04-.77.13-.98.75-1.35,1.66-1.56.92-.21,1.78-.63,2.6-1.12.32-.19.69-.44,1.04-.16,1.24,1,2.05.33,2.85-.65.38-.47.86-.87,1.29-1.29.23-.23.43-.49.18-.79-.9-1.11-.44-2.1.17-3.13.29-.49.51-1.05.62-1.6.18-.94.61-1.51,1.6-1.65.41-.06.74-.23.72-.79-.04-1.08-.03-2.17,0-3.26,0-.38-.13-.6-.48-.65-1.28-.18-1.74-1.06-1.99-2.19-.1-.45-.28-.92-.53-1.31-.6-.98-.96-1.93-.11-2.95.08-.1.11-.24.17-.4M41.02,31.62c-.24-.5-.49-1.13-.84-1.7-.3-.49-.24-.79.18-1.2,1.83-1.77,3.62-3.57,5.39-5.39.42-.44.73-.54,1.29-.2.88.52,1.71.97,2.91.42,1.05-.48,1.04-1.34,1.31-2.11.23-.66.49-.88,1.19-.86,2.41.05,4.82.07,7.22,0,.9-.03,1.25.28,1.41,1.11.19.94.63,1.61,1.67,2.02,1.06.41,1.71-.15,2.43-.54.63-.35.97-.26,1.45.24,1.69,1.76,3.41,3.49,5.18,5.17.55.52.53.9.23,1.54-.33.7-.95,1.27-.55,2.31.42,1.08,1.1,1.56,2.1,1.74.89.15,1.09.62,1.07,1.47-.06,2.37-.06,4.75,0,7.12.02.73-.24,1.04-.89,1.2-1.02.25-1.86.58-2.28,1.79-.32.94.09,1.51.45,2.13.44.76.39,1.24-.29,1.87-1.76,1.64-3.44,3.37-5.12,5.09-.39.4-.7.57-1.2.22-.27-.19-.6-.3-.91-.45-1.26-.63-2.73-.02-3.18,1.32q-.56,1.69-2.31,1.69c-2.17,0-4.34-.03-6.51.01-.67.01-.93-.24-1.15-.83-.27-.75-.25-1.6-1.2-2.1-1.1-.58-2-.4-2.89.24-.67.48-1.1.29-1.63-.26-1.64-1.71-3.3-3.41-5.04-5.03-.64-.59-.67-1.05-.22-1.7.61-.89.74-1.73.23-2.8-.41-.86-1.12-.97-1.78-1.11-.99-.21-1.18-.72-1.15-1.63.06-2.3.06-4.61,0-6.92-.02-.79.22-1.2.99-1.28,1.47-.17,2.06-1.2,2.42-2.6"/>
  <path class="st0" d="M31.18,25.43c-1.49,2.84-2.54,5.72-3.11,8.75-.87,4.59-.58,9.15.73,13.63.18.62.14.92-.59,1.14-2.42.72-2.42.77-3.03-1.69-1.71-6.92-1.18-13.67,1.57-20.24.17-.4.33-.81.55-1.36-1.25.27-2.29.78-3.34,1.24-.6.26-.92.22-1.13-.45-.24-.77-.91-1.6-.75-2.24.16-.62,1.3-.67,2.01-.96,2.22-.91,4.46-1.77,6.67-2.7.59-.25.89-.13,1.25.37,1.58,2.16,3.18,4.31,4.82,6.42.42.54.34.81-.18,1.19-2.04,1.53-2.03,1.54-3.52-.5-.61-.84-1.26-1.66-1.96-2.58"/>
  <path class="st0" d="M69.6,10.07c-.42-1.09-.8-2.17-1.27-3.21-.25-.56-.2-.8.4-1.05,2.39-.99,2.39-1.01,3.35,1.38.85,2.1,1.66,4.21,2.54,6.29.33.76.18,1.17-.5,1.66-2.07,1.47-4.1,3-6.11,4.56-.55.43-.9.6-1.31-.15-.38-.7-1.39-1.28-1.24-1.97.13-.58,1.11-.98,1.73-1.46.67-.52,1.33-1.05,2.03-1.53.53-.37.43-.57-.09-.82-2.93-1.42-5.99-2.46-9.22-2.94-4.21-.62-8.37-.27-12.45.9-.76.22-.98-.02-1.2-.69-.75-2.35-.76-2.31,1.48-2.87,7.31-1.83,14.4-1.17,21.28,1.85.14.06.27.23.57.04"/>
  <path class="st0" d="M84.91,52.65c1.32-.52,2.4-.89,3.43-1.37.64-.29.92-.13,1.12.48.25.77.93,1.64.73,2.24-.21.62-1.36.69-2.11,1-2.19.9-4.39,1.75-6.58,2.65-.44.18-.73.28-1.1-.22-1.61-2.22-3.26-4.41-4.94-6.58-.43-.55-.34-.79.18-1.18,2-1.5,1.98-1.51,3.48.45.63.83,1.26,1.66,1.96,2.6,1.4-2.52,2.3-5.09,2.92-7.75,1.13-4.88.84-9.73-.49-14.53-.21-.76-.08-1.02.68-1.24,2.3-.66,2.29-.7,2.88,1.64,1.79,7.12,1.15,14.05-1.72,20.79-.11.24-.21.49-.45,1.02"/>
  <path class="st0" d="M40.42,14.67c-.29.04-.37-.12-.45-.27-.41-.7-.81-1.41-1.23-2.1-.22-.37-.07-.55.26-.71.57-.29,1.13-.6,1.71-.87,1.36-.64,1.36-.64,1.95.79q.67,1.62-.89,2.42c-.48.25-.94.52-1.35.75"/>
  <path class="st0" d="M83.09,21.6c.32-.08.39.12.46.25.47.9.91,1.81,1.37,2.7.18.34.05.49-.25.61-.09.04-.18.09-.28.12-.79.26-1.76,1.19-2.25.81-.75-.58-1.05-1.75-1.52-2.68-.05-.09-.04-.32.03-.36.83-.51,1.67-1,2.44-1.45"/>
  <path class="st0" d="M31.7,54.89c.04.19-.09.29-.24.38-.7.4-1.41.8-2.1,1.22-.31.19-.5.1-.65-.18-.13-.24-.26-.47-.39-.71-1.34-2.46-1.25-2.66,1.45-3.51.18-.06.4-.24.53,0,.48.92.93,1.86,1.4,2.81"/>
  <path class="st1" d="M57.79,94.57c0-.96-.7-1.7-1.63-1.71-.93,0-1.67.72-1.68,1.67,0,.96.69,1.7,1.64,1.72.94.02,1.66-.71,1.67-1.68M56.18,89.55c2.73.03,5.04,2.32,5.01,4.97-.03,2.83-2.32,5.07-5.15,5.05-2.69-.02-5.02-2.44-4.96-5.14.06-2.69,2.38-4.91,5.1-4.88"/>
  <path class="st1" d="M27.56,94.51c-.02-.91-.81-1.69-1.71-1.66-.9.03-1.69.84-1.67,1.72.02.88.83,1.66,1.74,1.66.91,0,1.66-.79,1.64-1.72M25.9,89.54c2.83,0,5.03,2.27,5,5.14-.02,2.68-2.31,4.89-5.07,4.88-2.71-.01-4.95-2.28-4.94-5,.01-2.83,2.2-5.03,5.01-5.02"/>
  <path class="st1" d="M88.09,94.56c.02-.88-.77-1.68-1.68-1.7-.91-.02-1.69.75-1.69,1.67,0,.94.73,1.7,1.66,1.71.88.01,1.69-.79,1.71-1.68M91.39,94.64c-.02,2.76-2.3,4.96-5.12,4.92-2.68-.03-4.92-2.34-4.9-5.06.02-2.79,2.29-5,5.08-4.96,2.82.04,4.96,2.24,4.94,5.1"/>
  <path class="st0" d="M62.85,39.1c0-3.73-2.94-6.69-6.68-6.71-3.79-.01-6.76,2.95-6.76,6.73,0,3.67,3.08,6.74,6.73,6.71,3.7-.03,6.7-3.05,6.71-6.73M56.08,49.13c-5.58-.06-10.11-4.63-10.03-10.11.08-5.55,4.69-10.11,10.15-10.05,5.51.06,10.08,4.69,10.03,10.16-.05,5.56-4.62,10.06-10.15,10"/>
</svg>